<svg id="visual" viewBox="0 0 675 900" width="675" height="900" xmlns="http://www.w3.org/2000/svg" xmlns:xlink="http://www.w3.org/1999/xlink" version="1.1"><rect x="0" y="0" width="675" height="900" fill="#1f2937"></rect><g fill="none" stroke="#10b981" stroke-width="5"><path d="M0 -118L26.5 -36.5L112.2 -36.5L42.9 13.9L69.3 95.4L0 45.1L-69.3 95.4L-42.9 13.9L-112.2 -36.5L-26.5 -36.5Z" transform="translate(342 530)"></path><path d="M0 -51.9L11.7 -16L49.4 -16L18.9 6.1L30.5 42L0 19.8L-30.5 42L-18.9 6.1L-49.4 -16L-11.7 -16Z" transform="translate(555 746)"></path><path d="M0 -52.9L11.9 -16.3L50.3 -16.3L19.2 6.2L31.1 42.8L0 20.2L-31.1 42.8L-19.2 6.2L-50.3 -16.3L-11.9 -16.3Z" transform="translate(615 284)"></path><path d="M0 -96.3L21.6 -29.7L91.6 -29.7L35 11.4L56.6 77.9L0 36.8L-56.6 77.9L-35 11.4L-91.6 -29.7L-21.6 -29.7Z" transform="translate(13 663)"></path><path d="M0 -69.8L15.7 -21.6L66.4 -21.6L25.4 8.2L41.1 56.5L0 26.7L-41.1 56.5L-25.4 8.2L-66.4 -21.6L-15.7 -21.6Z" transform="translate(72 115)"></path><path d="M0 -79.3L17.8 -24.5L75.4 -24.5L28.8 9.4L46.6 64.1L0 30.3L-46.6 64.1L-28.8 9.4L-75.4 -24.5L-17.8 -24.5Z" transform="translate(65 397)"></path><path d="M0 -97.2L21.8 -30L92.5 -30L35.3 11.5L57.1 78.6L0 37.1L-57.1 78.6L-35.3 11.5L-92.5 -30L-21.8 -30Z" transform="translate(199 863)"></path><path d="M0 -52.9L11.9 -16.3L50.3 -16.3L19.2 6.2L31.1 42.8L0 20.2L-31.1 42.8L-19.2 6.2L-50.3 -16.3L-11.9 -16.3Z" transform="translate(573 34)"></path><path d="M0 -58.5L13.1 -18.1L55.7 -18.1L21.3 6.9L34.4 47.3L0 22.4L-34.4 47.3L-21.3 6.9L-55.7 -18.1L-13.1 -18.1Z" transform="translate(317 200)"></path></g></svg>