<svg width="1352" height="667" viewBox="0 0 1352 667" fill="none" xmlns="http://www.w3.org/2000/svg">
<g clip-path="url(#clip0)">
<g opacity="0.75" filter="url(#filter0_f)">
<ellipse cx="676" cy="644.5" rx="676" ry="396.5" fill="url(#paint0_radial)"/>
</g>
<path d="M808.1 299.3L768 322.3L736 304L776.1 280.8L808.1 299.3Z" fill="url(#paint1_linear)"/>
<path d="M808.1 315.3L768 338.3L736 320L776.1 296.8L808.1 315.3Z" fill="url(#paint2_linear)"/>
<path d="M1352 168H754V666H1352V168Z" fill="url(#paint3_linear)"/>
<path d="M1072 177.4L1104.1 158.9V140.4L1072 159V177.4Z" fill="#131057"/>
<path d="M1104.1 140.4L1080.1 126.6L1048.1 145L1072 159L1104.1 140.4Z" fill="#31297F"/>
<path d="M1057.3 102.8L1072.3 140.5L1096.1 126.6L1079.1 90.5996L1057.3 102.8Z" fill="#131057"/>
<path d="M1063.1 99.8997L1056.5 103.1L1064.1 135.8L1072.3 140.5L1063.1 99.8997Z" fill="#4F48AD"/>
<path d="M552.1 727.5V680.8L672.1 611.5V657.7L552.1 727.5Z" fill="#131057"/>
<path d="M672.1 611.5L552.1 680.8L448 620.8L568.1 551.5L672.1 611.5Z" fill="#31297F"/>
<path d="M608.9 477C593.2 468 567.9 468 552.3 477C536.7 486 536.8 500.7 552.5 509.8C568.2 518.8 593.5 518.8 609.1 509.8C624.7 500.7 624.6 486 608.9 477Z" fill="url(#paint4_linear)"/>
<path d="M608.9 457C593.2 448 567.9 448 552.3 457C536.7 466 536.8 480.7 552.5 489.8C568.2 498.8 593.5 498.8 609.1 489.8C624.7 480.7 624.6 466 608.9 457Z" fill="url(#paint5_linear)"/>
<path d="M1328.1 251.3V352.9L1264.1 389.8V288.2L1328.1 251.3Z" fill="#131057"/>
<path d="M1264.1 288.2L1152 223.5V352.9L1264.1 380.6V288.2Z" fill="#413A99"/>
<path d="M1264.1 288.2L1328.1 251.3L1216.1 186.6L1152 223.5L1264.1 288.2Z" fill="#31297F"/>
<path d="M1112.1 560.9V329.8L1128.1 292.8L1176.1 265.1V523.9L1112.1 560.9Z" fill="#131057"/>
<path d="M1264.1 315.9L1352.1 449.9V533L1264.1 389.8V315.9Z" fill="#413A99"/>
<path d="M1264.1 315.9L1328.1 279L1352.1 320.6V449.9L1264.1 315.9Z" fill="#31297F"/>
<path d="M1352.1 385.2L1300.1 295.2V267.4L1188 202.8" stroke="#5FCEB8" stroke-width="2" stroke-miterlimit="10"/>
<path d="M1112.1 329.8L1032.1 283.6V643.9L1112.1 597.7V329.8Z" fill="url(#paint6_linear)"/>
<path d="M1208.1 422.2L1128.1 376L1128.4 666.5H1208.1V422.2Z" fill="url(#paint7_linear)"/>
<path d="M1208.1 422.2L1272.1 385.2V666.5H1208.1V422.2Z" fill="#131057"/>
<path d="M1208.1 422.2L1272.1 385.2L1192.1 339L1128.1 376L1208.1 422.2Z" fill="#31297F"/>
<path d="M1208.1 597.7L1128.1 551.7L1032.1 606.9L992.2 583.8L1056.1 546.9L1016.1 523.8L1096.1 477.6L1064.1 459.1L984.1 505.3L832 417.5L656 519.2L880.1 648.5L960.1 602.3L1024 639.2L976.8 666.6L1088.8 666.5L1208.1 597.7Z" fill="#31297F"/>
<path d="M1184 585.5L1120 612.2L1159.9 533.8L1184 585.5Z" fill="#131057"/>
<path d="M1159.9 533.8L1136 556.9L1120 612.2L1159.9 533.8Z" fill="#413A99"/>
<path d="M1096.1 477.6V514.5L1048.3 542.4L1016.1 523.8L1096.1 477.6Z" fill="#131057"/>
<path d="M1056.1 546.9V583.9L1024 602.4L992.2 583.8L1056.1 546.9Z" fill="#131057"/>
<path d="M992.2 657.8L960 639.3L880 685.5L880.1 648.5L960.1 602.3L1024 639.2L992.2 657.8Z" fill="#131057"/>
<path d="M1208.1 634.6L1088.7 703.5L1088.8 666.5L1208.1 597.7V634.6Z" fill="#131057"/>
<path d="M880.1 685.5L656.1 556.2V519.2L880.2 648.5L880.1 685.5Z" fill="#4F48AD"/>
<path d="M960 639.3L960.1 602.3L1024 639.2L992.2 657.8L960 639.3Z" fill="#4F48AD"/>
<path d="M1128.1 292.8L1048.1 246.7L1032.1 283.6L1112.1 329.8L1128.1 292.8Z" fill="#6C64D4"/>
<path d="M1176.1 265.1L1128.1 292.8L1048.1 246.7L1096.1 218.9L1176.1 265.1Z" fill="#31297F"/>
<path d="M1160.1 265.1L1128.1 283.6L1064.1 246.7L1096.1 228.2L1160.1 265.1Z" fill="url(#paint8_linear)"/>
<path d="M1096.1 228.2V265.2L1128.1 283.6L1160.1 265.1L1096.1 228.2Z" fill="url(#paint9_linear)"/>
<path d="M776.1 625.5L752 639.3L720.1 620.8L744.1 607L776.1 625.5Z" fill="#31297F"/>
<path d="M752.1 639.3L741.5 666.5H760.1L776.1 625.5L752.1 639.3Z" fill="#131057"/>
<path d="M702.3 666.5L720.1 620.8L752.1 639.3L741.5 666.5H702.3Z" fill="#4F48AD"/>
<path d="M729.1 597.7L705 611.5L673.1 592.9L697.1 579.2L729.1 597.7Z" fill="#31297F"/>
<path d="M705.1 611.5L683.7 666.5H702.3L729.1 597.7L705.1 611.5Z" fill="#131057"/>
<path d="M644.5 666.5L673.1 593L705.1 611.5L683.7 666.5H644.5Z" fill="#4F48AD"/>
<path d="M632.2 597.7L560.1 556.1L480.1 602.4L552.1 643.9L632.2 597.7Z" fill="#3CAC96"/>
<path d="M632.2 597.7L632 616.1L552.1 662.3V643.9L632.2 597.7Z" fill="#158772"/>
<path d="M552.1 643.9V662.3L480.1 620.8V602.4L552.1 643.9Z" fill="#5FCEB8"/>
<path d="M552.1 680.8V727.5L448 666.6V620.8L552.1 680.8Z" fill="#4F48AD"/>
<path d="M784 491.5L752 510L752.1 408.3L808.1 376L784 491.5Z" fill="#131057"/>
<path d="M752 510L640.1 445.3V343.6L752.1 408.3L752 510Z" fill="#4F48AD"/>
<path d="M752.1 408.3L808.1 376L696.1 311.3L640.1 343.6L752.1 408.3Z" fill="#31297F"/>
<path d="M736.2 417.5V473L656.2 426.8V371.4L736.2 417.5Z" fill="#5FCEB8"/>
<path d="M1056.1 119.9C1051.6 117.3 1047.5 117.3 1044.5 119.4V119.3L964.6 165.4L986.8 244.9L1065.9 199.2C1069.6 197.7 1072 193.4 1072 187.1V149C1072.1 138.2 1064.9 125 1056.1 119.9Z" fill="url(#paint10_linear)"/>
<path d="M969.4 164.1C963.9 164.1 960.1 168.8 960.1 176.9V214.8C960.1 225.8 967.3 239 976 244.1C978.4 245.5 980.6 246.1 982.7 246.1C988.2 246.1 992 241.4 992 233.3V195.3C992 184.3 984.8 171.1 976 166.1C973.7 164.8 971.5 164.1 969.4 164.1Z" fill="#4F48AD"/>
<path d="M1016.6 149.5C1018.5 149.5 1020.1 151.1 1020.1 153V163.5H1013.1V153C1013.1 151.1 1014.7 149.5 1016.6 149.5Z" fill="#3CAC96"/>
<path d="M1015.1 160.5C1014 160.5 1013.1 159.6 1013.1 158.5V154.5C1013.1 153.4 1014 152.5 1015.1 152.5C1016.2 152.5 1017.1 153.4 1017.1 154.5V158.5C1017.1 159.6 1016.2 160.5 1015.1 160.5Z" fill="white"/>
<path opacity="0.5" d="M1032.1 133.8C1032.1 133.6 1032.1 133.5 1032.1 133.3C1032.1 124.5 1024.9 117.3 1016.1 117.3C1007.3 117.3 1000.1 124.5 1000.1 133.3C1000.1 133.4 1000.1 133.4 1000.1 133.5V153.9C1000 156.4 1001.5 158.8 1004.8 160.7C1011 164.3 1021.2 164.3 1027.5 160.7C1030.7 158.8 1032.3 156.4 1032.2 153.9V133.8H1032.1Z" fill="url(#paint11_linear)"/>
<path d="M1104.1 121.9L1088.1 149.6L1104.1 140.4L1120.1 112.7L1104.1 121.9Z" fill="#131057"/>
<path d="M1088.1 149.6L1080.1 145L1096.1 117.3L1104.1 121.9L1088.1 149.6Z" fill="#4F48AD"/>
<path d="M808.1 246.7V283.6L768 306.8V269.7L808.1 246.7Z" fill="#131057"/>
<path d="M736 288.3L768 306.8V269.7L736 251.3V288.3Z" fill="#4F48AD"/>
<path d="M808.1 246.7L768 269.7L736 251.3L776.1 228.2L808.1 246.7Z" fill="#31297F"/>
<path d="M778.2 255C795.928 255 810.3 236.42 810.3 213.5C810.3 190.58 795.928 172 778.2 172C760.472 172 746.1 190.58 746.1 213.5C746.1 236.42 760.472 255 778.2 255Z" fill="url(#paint12_linear)"/>
<path d="M656.1 371.5L528.1 445.5L608.1 491.5V546.5L736.1 472.5V417.5L656.1 371.5Z" fill="url(#paint13_linear)"/>
<path d="M776.3 560.8L744.1 542.3L792.1 514.5L824.1 533.1L776.3 560.8Z" fill="#5FCEB8"/>
<path d="M764.2 553.8L772.1 549.3C772.1 549.3 777.2 551 781.6 548.3C785.7 545.8 784.2 542.1 784.2 542.1L792.2 537.5C792.2 537.5 797.3 539.2 801.7 536.5C805.8 534 804.3 530.3 804.3 530.3L812 526.1" stroke="#31297F" stroke-width="2" stroke-miterlimit="10" stroke-linecap="round" stroke-linejoin="round"/>
<path d="M783.5 546.5L792.2 551.599" stroke="#31297F" stroke-width="2" stroke-miterlimit="10" stroke-linecap="round" stroke-linejoin="round"/>
<path d="M760 532.9L768.1 537.6" stroke="#31297F" stroke-width="2" stroke-miterlimit="10" stroke-linecap="round" stroke-linejoin="round"/>
<path d="M778.6 549.5L787 554.299" stroke="#31297F" stroke-width="2" stroke-miterlimit="10" stroke-linecap="round" stroke-linejoin="round"/>
<path d="M754.8 535.7L764.5 541.3" stroke="#31297F" stroke-width="2" stroke-miterlimit="10" stroke-linecap="round" stroke-linejoin="round"/>
<path d="M803.7 534.5L813.4 540.099" stroke="#31297F" stroke-width="2" stroke-miterlimit="10" stroke-linecap="round" stroke-linejoin="round"/>
<path d="M780.6 521.2L788.3 525.6" stroke="#31297F" stroke-width="2" stroke-miterlimit="10" stroke-linecap="round" stroke-linejoin="round"/>
<path d="M799.2 537.7L808.2 542.9" stroke="#31297F" stroke-width="2" stroke-miterlimit="10" stroke-linecap="round" stroke-linejoin="round"/>
<path d="M775.6 524.1L784.6 529.3" stroke="#31297F" stroke-width="2" stroke-miterlimit="10" stroke-linecap="round" stroke-linejoin="round"/>
<path d="M756.1 549.2L764.1 544.6C764.1 544.6 762.8 541 767.4 537.9C771.8 534.9 777.3 536.7 777.3 536.7L784.6 532.3C784.6 532.3 783 528.7 787.6 526.1C792.2 523.4 796.6 525 796.6 525L805.1 520.1" stroke="#31297F" stroke-width="2" stroke-miterlimit="10" stroke-linecap="round" stroke-linejoin="round"/>
<path d="M1244.2 498.4L1280.1 519.2L1264.1 528.4L1236 512.2L1244.2 498.4Z" fill="url(#paint14_linear)"/>
<path d="M1244.2 526.3L1280.1 547L1264.1 556.2L1236 540L1244.2 526.3Z" fill="url(#paint15_linear)"/>
<path d="M783.6 212.4L745.2 202.3V226.3L783.5 216.3C785.6 215.8 785.6 213 783.6 212.4Z" fill="url(#paint16_linear)"/>
<path d="M746.1 213.5C746.1 190.6 760.5 172 778.2 172C753.4 172 733.3 190.6 733.3 213.5C733.3 236.4 753.4 255 778.2 255C760.5 255.1 746.1 236.5 746.1 213.5Z" fill="#4F48AD"/>
<path opacity="0.5" d="M664.1 394.5V385.5L696.2 403.7V413L664.1 394.5Z" fill="white"/>
<path opacity="0.5" d="M672.1 417.4V408.5L728.1 440.4V449.6L672.1 417.4Z" fill="white"/>
<path opacity="0.5" d="M704 417.2V408.3L720.1 417.6V426.8L704 417.2Z" fill="white"/>
<path d="M668.5 454.3C668.5 454.3 661.6 446.7 649.2 454.3L651.3 473L649.2 485.9H668.5V454.3Z" fill="url(#paint17_linear)"/>
<path d="M641.2 516.4L651.3 510.1L649.2 486H658.8L658.2 510.3C658.1 511.9 657.3 513.3 656 514.2L644.2 521.9" fill="url(#paint18_linear)"/>
<path d="M640.7 515.5C640.7 515.5 633.5 520.3 633.3 521.7C633.2 522.5 636.8 533.7 636.8 533.7C637 534.4 638 534.4 638.1 533.7L640.3 524.5L644.8 522.7L640.7 515.5Z" fill="url(#paint19_linear)"/>
<path d="M662 533.7L661.6 547.3L669.2 552.8C670.4 553.7 671.9 552.3 671.2 551L667.8 544.5L669.8 535.5L662 533.7Z" fill="url(#paint20_linear)"/>
<path d="M662.9 533.9L664.4 517.7L655.9 486H668.5L670.6 517L668.8 535.3L662.9 533.9Z" fill="url(#paint21_linear)"/>
<path d="M659.6 455H645.1V477.7H659.6V455Z" fill="url(#paint22_linear)"/>
<path d="M654.8 455H640.3V477.7H654.8V455Z" fill="url(#paint23_linear)"/>
<g opacity="0.5">
<g opacity="0.5">
<path opacity="0.5" d="M658.6 434.5C654.5 434.5 651.1 437.9 651.1 442V452.5C651.1 454.2 654.5 455.5 658.6 455.5C662.7 455.5 666.1 454.2 666.1 452.5V442C666.1 437.9 662.7 434.5 658.6 434.5Z" fill="url(#paint24_linear)"/>
</g>
</g>
<path d="M658.6 439.5C660.5 439.5 662.1 441.1 662.1 443V453.5H655.1V443C655.1 441.1 656.7 439.5 658.6 439.5Z" fill="url(#paint25_linear)"/>
<path d="M669.416 460.435C669.548 456.295 668.357 452.897 666.756 452.846C665.155 452.796 663.751 456.111 663.619 460.251C663.487 464.391 664.679 467.788 666.279 467.839C667.88 467.89 669.285 464.575 669.416 460.435Z" fill="#EE6D93"/>
<path d="M670.166 460.499C670.602 456.324 669.886 452.828 668.568 452.691C667.249 452.553 665.828 455.826 665.392 460C664.956 464.175 665.672 467.671 666.99 467.808C668.308 467.946 669.73 464.673 670.166 460.499Z" fill="#F7C6B8"/>
<path d="M685.3 430.4L687.1 424.7" stroke="white" stroke-width="4" stroke-miterlimit="10" stroke-linecap="round" stroke-linejoin="round"/>
<path d="M666.5 459.5L680.6 446.4L685.3 430.4" stroke="#EE6D93" stroke-width="4" stroke-miterlimit="10" stroke-linecap="round" stroke-linejoin="round"/>
<path d="M1048.4 468.5L1080.1 486.5" stroke="#5FCEB8" stroke-width="2" stroke-miterlimit="10" stroke-linecap="round" stroke-linejoin="round"/>
<path d="M1040.4 473.5L1072.1 491.5" stroke="#EE6D93" stroke-width="1.5" stroke-miterlimit="10" stroke-linecap="round" stroke-linejoin="round"/>
<path d="M1328.1 278.5L1264.1 315.5" stroke="#5FCEB8" stroke-width="2" stroke-miterlimit="10"/>
<path d="M600.1 597.7L552.2 625.3L512.2 602.4L560.1 574.6L600.1 597.7Z" fill="url(#paint26_linear)"/>
<path d="M560.1 574.6L560.2 620.8L600.1 597.7L560.1 574.6Z" fill="url(#paint27_linear)"/>
<path d="M600.1 597.7V523.8L560.1 500.7L512 528.5L512.2 602.4L552.2 625.3L600.1 597.7Z" fill="url(#paint28_linear)"/>
<path d="M785.1 218.1C787.199 218.1 788.9 216.399 788.9 214.3C788.9 212.201 787.199 210.5 785.1 210.5C783.001 210.5 781.3 212.201 781.3 214.3C781.3 216.399 783.001 218.1 785.1 218.1Z" fill="url(#paint29_linear)"/>
<path opacity="0.5" d="M1250.5 171.6C1251.6 171.6 1252.5 170.704 1252.5 169.6C1252.5 168.495 1251.6 167.6 1250.5 167.6C1249.4 167.6 1248.5 168.495 1248.5 169.6C1248.5 170.704 1249.4 171.6 1250.5 171.6Z" fill="#5FCEB8"/>
<path d="M1236.5 148.9C1237.05 148.9 1237.5 148.453 1237.5 147.9C1237.5 147.348 1237.05 146.9 1236.5 146.9C1235.95 146.9 1235.5 147.348 1235.5 147.9C1235.5 148.453 1235.95 148.9 1236.5 148.9Z" fill="#5FCEB8"/>
<path d="M1216 173.6C1216.55 173.6 1217 173.152 1217 172.6C1217 172.047 1216.55 171.6 1216 171.6C1215.45 171.6 1215 172.047 1215 172.6C1215 173.152 1215.45 173.6 1216 173.6Z" fill="#5FCEB8"/>
<path d="M1244.1 187.6C1244.65 187.6 1245.1 187.152 1245.1 186.6C1245.1 186.047 1244.65 185.6 1244.1 185.6C1243.55 185.6 1243.1 186.047 1243.1 186.6C1243.1 187.152 1243.55 187.6 1244.1 187.6Z" fill="#5FCEB8"/>
<path d="M1260.6 215.1C1261.15 215.1 1261.6 214.652 1261.6 214.1C1261.6 213.547 1261.15 213.1 1260.6 213.1C1260.05 213.1 1259.6 213.547 1259.6 214.1C1259.6 214.652 1260.05 215.1 1260.6 215.1Z" fill="#5FCEB8"/>
<path opacity="0.5" d="M1215.3 147.9C1216.4 147.9 1217.3 147.005 1217.3 145.9C1217.3 144.796 1216.4 143.9 1215.3 143.9C1214.2 143.9 1213.3 144.796 1213.3 145.9C1213.3 147.005 1214.2 147.9 1215.3 147.9Z" fill="#5FCEB8"/>
<path d="M1212.1 191.9C1213.2 191.9 1214.1 191.005 1214.1 189.9C1214.1 188.796 1213.2 187.9 1212.1 187.9C1211 187.9 1210.1 188.796 1210.1 189.9C1210.1 191.005 1211 191.9 1212.1 191.9Z" fill="#5FCEB8"/>
<path d="M1192.1 486.8L1144.1 459.3V514.6L1192.3 542.4L1192.1 486.8Z" fill="url(#paint30_linear)"/>
<path d="M1192.3 542.4L1192.1 486.8L1144.1 514.6L1192.3 542.4Z" fill="url(#paint31_linear)"/>
<path d="M982.8 533.4L971.1 526.7L955.2 529.1L951 538.3L962.7 545.1L978.6 542.6L982.8 533.4Z" fill="#158772"/>
<path d="M977.6 534.2L969.7 529.7L959.1 531.4L956.3 537.5L964.1 542L974.7 540.4L977.6 534.2Z" fill="#3CAC96"/>
<path d="M972.2 535.1L968.3 532.8L963.1 533.7L961.7 536.7L965.5 538.9L970.8 538.1L972.2 535.1Z" fill="#5FCEB8"/>
<path d="M962.7 557.6L951 550.8V538.3L962.7 545.1V557.6Z" fill="#4F48AD"/>
<path d="M978.6 542.6V555.1L962.7 557.6V545.1L978.6 542.6Z" fill="#31297F"/>
<path d="M982.8 545.9L978.6 555.1V542.6L982.8 533.4V545.9Z" fill="#131057"/>
<path d="M939.5 509.9L927.8 503.1L911.9 505.6L907.7 514.8L919.3 521.6L935.2 519.1L939.5 509.9Z" fill="#158772"/>
<path d="M934.2 510.7L926.4 506.2L915.7 507.9L912.9 514L920.7 518.5L931.4 516.9L934.2 510.7Z" fill="#3CAC96"/>
<path d="M928.8 511.6L924.9 509.3L919.7 510.1L918.3 513.2L922.2 515.4L927.4 514.6L928.8 511.6Z" fill="#5FCEB8"/>
<path d="M919.3 534.1L907.7 527.3V514.8L919.3 521.6V534.1Z" fill="#4F48AD"/>
<path d="M935.2 519.1V531.6L919.3 534.1V521.6L935.2 519.1Z" fill="#31297F"/>
<path d="M939.5 522.4L935.2 531.6V519.1L939.5 509.9V522.4Z" fill="#131057"/>
<path d="M832.1 241.5L864.1 223.5L1080.1 348.5L872.1 468.5V302.5L904.1 320.5V412.9L1016.1 348.5L832.1 241.5Z" fill="#31297F"/>
<path d="M872.1 514.5L832.1 491.5V241.5L1016.1 348.5L984.1 366.5L872.1 302.5V514.5Z" fill="#4F48AD"/>
<path d="M872.1 514.5L1080.1 394.5V348.5L872.1 468.5V514.5Z" fill="#131057"/>
<path d="M904.1 412.9L872.1 468.5V302.5L904.1 320.5V412.9Z" fill="#131057"/>
<path opacity="0.4" d="M832.1 241.5L864.1 223.5L1048.1 329.8L1016.1 348.5L832.1 241.5Z" fill="url(#paint32_linear)"/>
<path d="M560 648.6L568.1 653.1L568 662.4" stroke="#5FCEB8" stroke-width="2" stroke-miterlimit="10" stroke-linecap="round" stroke-linejoin="round"/>
<path d="M576 639.3L584.1 643.8L584 653.1" stroke="#5FCEB8" stroke-width="2" stroke-miterlimit="10" stroke-linecap="round" stroke-linejoin="round"/>
<path d="M592 630.1L600.1 634.6L600 643.9" stroke="#5FCEB8" stroke-width="2" stroke-miterlimit="10" stroke-linecap="round" stroke-linejoin="round"/>
<path d="M608 620.8L616.1 625.4L616 634.6" stroke="#5FCEB8" stroke-width="2" stroke-miterlimit="10" stroke-linecap="round" stroke-linejoin="round"/>
<path d="M624 611.5L632 616.1V625.3" stroke="#5FCEB8" stroke-width="2" stroke-miterlimit="10" stroke-linecap="round" stroke-linejoin="round"/>
<path d="M1120 612.2L1064.2 643.9L832.2 510L736.1 565.4V581.6" stroke="#5FCEB8" stroke-width="2" stroke-miterlimit="10" stroke-linecap="round" stroke-linejoin="round"/>
<path d="M744.8 588C744.8 580.8 739.7 572 733.5 568.4C730.3 566.5 727.4 566.4 725.3 567.7L708.1 577.6L722.9 606L741.2 595.4C743.4 594.3 744.8 591.8 744.8 588Z" fill="#131057"/>
<path d="M716 582.2C711.5 579.6 707.8 581.7 707.8 586.9C707.8 592.1 711.4 598.4 715.9 601C720.4 603.6 724.1 601.5 724.1 596.3C724.2 591.1 720.5 584.8 716 582.2Z" fill="#5FCEB8"/>
<path d="M716 600.9C711.5 598.3 707.9 592 707.9 586.8C707.9 581.6 711.6 579.5 716.1 582.1C720.6 584.7 724.2 591 724.2 596.2C724.1 601.4 720.5 603.5 716 600.9ZM716 578.1C709.5 574.4 704.3 577.4 704.3 584.8C704.3 592.2 709.5 601.3 716 605C722.5 608.7 727.7 605.7 727.7 598.3C727.7 590.9 722.5 581.8 716 578.1Z" fill="#4F48AD"/>
<path d="M896.1 546.9V537.7C896.1 533.6 891.6 531 888.1 533.1" stroke="#5FCEB8" stroke-width="2" stroke-miterlimit="10" stroke-linecap="round" stroke-linejoin="round"/>
<path d="M893.6 542.7C893.6 535.5 888.5 526.7 882.3 523.1C879.1 521.2 876.2 521.1 874.1 522.4L817.2 555.5L832 583.9L890 550.2C892.2 549 893.6 546.5 893.6 542.7Z" fill="#131057"/>
<path d="M825.1 561.3C821.2 559 818 560.9 818 565.4C818 569.9 821.2 575.4 825.1 577.7C829 580 832.2 578.1 832.2 573.6C832.2 569 829 563.5 825.1 561.3Z" fill="#5FCEB8"/>
<path d="M825.1 577.6C821.2 575.3 818 569.8 818 565.3C818 560.8 821.2 559 825.1 561.2C829 563.5 832.2 569 832.2 573.5C832.2 578 829 579.9 825.1 577.6ZM825.1 556.4C818.8 552.8 813.7 555.7 813.7 562.9C813.7 570.1 818.8 578.9 825 582.5C831.3 586.1 836.4 583.2 836.4 576C836.4 568.8 831.4 560 825.1 556.4Z" fill="#4F48AD"/>
<path d="M824 570L819 572.9C817.1 574 816 576 816 578.2L816.2 593.1" stroke="#5FCEB8" stroke-width="2" stroke-miterlimit="10" stroke-linecap="round" stroke-linejoin="round"/>
<path d="M1142.2 568.9L1128.6 582.5" stroke="#3CAC96" stroke-width="2" stroke-miterlimit="10" stroke-linecap="round" stroke-linejoin="round"/>
<path d="M1150.1 553.1L1131.9 571.2" stroke="#3CAC96" stroke-width="2" stroke-miterlimit="10" stroke-linecap="round" stroke-linejoin="round"/>
<path d="M1150.1 553.1L1168.3 592" stroke="#5FCEB8" stroke-width="2" stroke-miterlimit="10" stroke-linecap="round" stroke-linejoin="round"/>
<path d="M1155.5 597.4L1142.2 568.9" stroke="#5FCEB8" stroke-width="2" stroke-miterlimit="10" stroke-linecap="round" stroke-linejoin="round"/>
<path d="M1066.8 280.6L1120 311.5L1176.1 279.3" stroke="#5FCEB8" stroke-width="2" stroke-miterlimit="10" stroke-linejoin="round"/>
<path d="M696.1 367.8C692.2 365.5 689 367.4 689 371.9C689 376.4 692.2 381.9 696.1 384.2C700 386.5 703.2 384.6 703.2 380.1C703.2 375.6 700 370.1 696.1 367.8Z" fill="#5FCEB8"/>
<path d="M696.1 384.1C692.2 381.8 689 376.3 689 371.8C689 367.3 692.2 365.5 696.1 367.7C700 370 703.2 375.5 703.2 380C703.2 384.5 700 386.4 696.1 384.1ZM696.1 362.9C689.8 359.3 684.7 362.2 684.7 369.4C684.7 376.6 689.7 385.4 696 389C702.3 392.6 707.4 389.7 707.4 382.5C707.5 375.3 702.4 366.5 696.1 362.9Z" fill="#4F48AD"/>
<path d="M746.5 269.1L708.6 290.8L732.2 304.1L758.2 288.5L746.5 269.1Z" fill="url(#paint33_linear)"/>
<path d="M967.4 168.6L907.6 201.9V286.3L985 241.4L967.4 168.6Z" fill="url(#paint34_linear)"/>
<path d="M969.4 168.1C970.8 168.1 972.4 168.6 974.1 169.6C981.7 174 988.1 185.8 988.1 195.4V233.4C988.1 237.6 986.7 242.2 982.8 242.2C981.4 242.2 979.8 241.7 978.1 240.7C970.5 236.3 964.1 224.5 964.1 214.9V177C964.1 168.7 968.2 168.1 969.4 168.1Z" fill="url(#paint35_linear)"/>
<path d="M1080.1 523.8V486.8" stroke="#3CAC96" stroke-width="2" stroke-miterlimit="10" stroke-linecap="round" stroke-linejoin="round"/>
<path d="M1072.1 528.8V491.8" stroke="#EE6D93" stroke-width="1.5" stroke-miterlimit="10" stroke-linecap="round" stroke-linejoin="round"/>
<path d="M872.1 491.5L852.1 479.5V272.5L1000.1 357.5" stroke="#5FCEB8" stroke-width="2" stroke-miterlimit="10" stroke-linecap="round" stroke-linejoin="round"/>
<path d="M1032.5 399.2L872.1 491.5" stroke="#3CAC96" stroke-width="2" stroke-miterlimit="10" stroke-linejoin="round"/>
<path d="M1056.4 385.2L1043.8 392.6" stroke="#3CAC96" stroke-width="2" stroke-miterlimit="10" stroke-linejoin="round"/>
<path d="M1041.5 490.8L984.1 524.5L1024.1 546.5L960.1 583.5" stroke="#5FCEB8" stroke-width="2" stroke-miterlimit="10" stroke-linecap="round" stroke-linejoin="round"/>
<path d="M876.6 557.3C878.6 556.2 879.8 553.7 879.8 550.2C879.8 543.2 874.9 534.7 868.8 531.2C865.8 529.5 863.1 529.3 861.1 530.3" stroke="#5FCEB8" stroke-width="1.5" stroke-miterlimit="10" stroke-linecap="round" stroke-linejoin="round"/>
<path d="M936.1 570V560.8C936.1 556.7 931.6 554.1 928.1 556.2" stroke="#5FCEB8" stroke-width="2" stroke-miterlimit="10" stroke-linecap="round" stroke-linejoin="round"/>
<path d="M933.6 565.8C933.6 558.6 928.5 549.8 922.3 546.2C919.1 544.3 916.2 544.2 914.1 545.5L857.2 578.6L872 607L930 573.3C932.2 572.1 933.6 569.6 933.6 565.8Z" fill="#131057"/>
<path d="M865.1 584.3C861.2 582 858 583.9 858 588.4C858 592.9 861.2 598.4 865.1 600.7C869 603 872.2 601.1 872.2 596.6C872.2 592.1 869 586.6 865.1 584.3Z" fill="#5FCEB8"/>
<path d="M865.1 600.7C861.2 598.4 858 592.9 858 588.4C858 583.9 861.2 582.1 865.1 584.3C869 586.6 872.2 592.1 872.2 596.6C872.2 601.1 869 602.9 865.1 600.7ZM865.1 579.5C858.8 575.9 853.7 578.8 853.7 586C853.7 593.2 858.8 602 865 605.6C871.3 609.2 876.4 606.3 876.4 599.1C876.5 591.9 871.4 583.1 865.1 579.5Z" fill="#4F48AD"/>
<path d="M864 593.1L859 596C857.1 597.1 856 599.1 856 601.3L856.2 616.2" stroke="#5FCEB8" stroke-width="2" stroke-miterlimit="10" stroke-linecap="round" stroke-linejoin="round"/>
<path d="M916.5 580.7C918.5 579.6 919.7 577.1 919.7 573.6C919.7 566.6 914.8 558.1 908.7 554.6C905.7 552.9 903 552.7 901 553.7" stroke="#5FCEB8" stroke-width="1.5" stroke-miterlimit="10" stroke-linecap="round" stroke-linejoin="round"/>
<path d="M887.8 597.2C889.8 596.1 891 593.6 891 590.1C891 583.1 886.1 574.6 880 571.1C877 569.4 874.3 569.2 872.3 570.2" stroke="#5FCEB8" stroke-width="1.5" stroke-miterlimit="10" stroke-linecap="round" stroke-linejoin="round"/>
<path d="M1120 84.9996L1148.5 68.5996L1164.2 77.9996L1128.2 98.8996L1120 84.9996Z" fill="url(#paint36_linear)"/>
<path d="M1080.1 61.8L1108.6 45.5L1124.3 54.9L1088.3 75.7L1080.1 61.8Z" fill="url(#paint37_linear)"/>
<path d="M1091.8 78.3995C1091.8 71.1995 1086.8 62.3995 1080.5 58.7995C1077.4 56.9995 1074.5 56.7995 1072.5 57.9995L1035.5 79.2995L1051.9 106.8L1088.5 85.7995C1090.5 84.5995 1091.8 81.9995 1091.8 78.3995Z" fill="url(#paint38_linear)"/>
<path d="M1043.5 80.1995C1037.2 76.5995 1032.1 79.4995 1032.1 86.6995C1032.1 93.8995 1037.1 102.7 1043.4 106.3C1049.7 109.9 1054.8 107 1054.8 99.7995C1054.8 92.4995 1049.8 83.7995 1043.5 80.1995Z" fill="#4F48AD"/>
<path d="M1043.5 84.3996C1039.3 81.9996 1035.8 83.8996 1035.8 88.7996C1035.8 93.6996 1039.2 99.5996 1043.4 102C1047.6 104.4 1051.1 102.5 1051.1 97.5996C1051.1 92.7996 1047.7 86.7996 1043.5 84.3996Z" fill="url(#paint39_linear)"/>
<path d="M1066.3 97.8995C1068.3 96.7995 1069.5 94.2995 1069.5 90.7995C1069.5 83.7995 1064.6 75.2995 1058.5 71.7995C1055.5 70.0995 1052.8 69.8995 1050.8 70.8995" stroke="#EE6D93" stroke-width="1.5" stroke-miterlimit="10" stroke-linecap="round" stroke-linejoin="round"/>
<path d="M1075.6 93.0995C1077.6 91.9995 1078.8 89.4995 1078.8 85.9995C1078.8 78.9995 1073.9 70.4995 1067.8 66.9995C1064.8 65.2995 1062.1 65.0995 1060.1 66.0995" stroke="#EE6D93" stroke-width="1.5" stroke-miterlimit="10" stroke-linecap="round" stroke-linejoin="round"/>
<path d="M1131.4 100.8C1131.4 93.5999 1126.4 84.7999 1120.1 81.1999C1117 79.3999 1114.1 79.1999 1112.1 80.3999L1075.1 101.7L1091.5 129.2L1128.1 108.2C1130.2 106.9 1131.4 104.4 1131.4 100.8Z" fill="url(#paint40_linear)"/>
<path d="M1083.1 102.5C1076.8 98.8998 1071.7 101.8 1071.7 109C1071.7 116.2 1076.7 125 1083 128.6C1089.3 132.2 1094.4 129.3 1094.4 122.1C1094.5 114.9 1089.4 106.1 1083.1 102.5Z" fill="#4F48AD"/>
<path d="M1083.1 106.8C1078.9 104.4 1075.4 106.3 1075.4 111.2C1075.4 116.1 1078.8 122 1083 124.4C1087.2 126.8 1090.7 124.9 1090.7 120C1090.8 115.1 1087.3 109.2 1083.1 106.8Z" fill="url(#paint41_linear)"/>
<path d="M1105.9 120.3C1107.9 119.2 1109.1 116.7 1109.1 113.2C1109.1 106.2 1104.2 97.6999 1098.1 94.1999C1095.1 92.4999 1092.4 92.2999 1090.4 93.2999" stroke="#EE6D93" stroke-width="1.5" stroke-miterlimit="10" stroke-linecap="round" stroke-linejoin="round"/>
<path d="M1115.2 115.5C1117.2 114.4 1118.4 111.9 1118.4 108.4C1118.4 101.4 1113.5 92.8999 1107.4 89.3999C1104.4 87.6999 1101.7 87.4999 1099.7 88.4999" stroke="#EE6D93" stroke-width="1.5" stroke-miterlimit="10" stroke-linecap="round" stroke-linejoin="round"/>
<path d="M1072 177.4L992 223.5L988 221.2" stroke="#EE6D93" stroke-width="1.5" stroke-miterlimit="10" stroke-linecap="round" stroke-linejoin="round"/>
<path d="M964.1 207.4L960 205.1" stroke="#EE6D93" stroke-width="1.5" stroke-miterlimit="10" stroke-linecap="round" stroke-linejoin="round"/>
<path d="M1072 168.3L1104.1 149.6" stroke="#EE6D93" stroke-width="1.5" stroke-miterlimit="10" stroke-linecap="round" stroke-linejoin="round"/>
<path d="M714.2 635.9L746.2 654.3L770.3 640.5" stroke="#5FCEB8" stroke-width="2" stroke-miterlimit="10" stroke-linejoin="round"/>
<path d="M666.1 609.2L698.1 627.7L722.1 613.8" stroke="#5FCEB8" stroke-width="2" stroke-miterlimit="10" stroke-linejoin="round"/>
<path d="M768.1 500.7L768 399.3L655.9 334.3" stroke="#5FCEB8" stroke-width="2" stroke-miterlimit="10" stroke-linecap="round" stroke-linejoin="round"/>
<path d="M752 269.8C747.6 267.2 744 269.3 743.9 274.4C743.8 279.5 747.5 285.7 751.9 288.3C756.3 290.9 759.9 288.8 760 283.7C760.1 278.6 756.5 272.4 752 269.8Z" fill="url(#paint42_linear)"/>
<path d="M870.1 144.5L876.1 163.5L890.1 155.5" stroke="#EE6D93" stroke-width="4" stroke-miterlimit="10" stroke-linecap="round" stroke-linejoin="round"/>
<path d="M870.1 144.5L876.1 163.5L890.1 155.5" stroke="#EE6D93" stroke-width="4" stroke-miterlimit="10" stroke-linecap="round" stroke-linejoin="round"/>
<path d="M886.8 157.4L890.1 155.5" stroke="white" stroke-width="4" stroke-miterlimit="10" stroke-linecap="round" stroke-linejoin="round"/>
<path opacity="0.5" d="M920.1 134.5H880.1V167.5H920.1V134.5Z" fill="#5FCEB8"/>
<path opacity="0.7" d="M922.1 149.5H918.1V169.5H922.1V149.5Z" fill="url(#paint43_linear)"/>
<path opacity="0.7" d="M914.1 159.5H910.1V169.5H914.1V159.5Z" fill="url(#paint44_linear)"/>
<path opacity="0.7" d="M904.1 155.5H900.1V169.5H904.1V155.5Z" fill="url(#paint45_linear)"/>
<path opacity="0.7" d="M803.1 155.5H799.1V169.5H803.1V155.5Z" fill="url(#paint46_linear)"/>
<path opacity="0.7" d="M811.1 155.5H807.1V169.5H811.1V155.5Z" fill="url(#paint47_linear)"/>
<path opacity="0.7" d="M819.1 155.5H815.1V169.5H819.1V155.5Z" fill="url(#paint48_linear)"/>
<path opacity="0.5" d="M841.1 134.5H801.1V167.5H841.1V134.5Z" fill="#5FCEB8"/>
<path opacity="0.5" d="M825.1 116.5H808.1V149.5H825.1V116.5Z" fill="#5FCEB8"/>
<path opacity="0.5" d="M887.1 111.5H870.1V144.5H887.1V111.5Z" fill="#5FCEB8"/>
<path d="M847.1 170.5H869.1V140.3C869.1 139.8 868.8 139.4 868.3 139.3C862.7 137.9 856.9 137.6 851.2 138.6C848.8 139 847.1 141.1 847.1 143.5V170.5Z" fill="url(#paint49_linear)"/>
<path d="M851.093 151.183C852.667 150.667 853.038 147.484 851.921 144.072C850.804 140.661 848.622 138.313 847.047 138.829C845.473 139.345 845.102 142.528 846.219 145.94C847.336 149.351 849.518 151.699 851.093 151.183Z" fill="#F7C6B8"/>
<path d="M870.6 139.7L874.1 141.6L869.1 150.8V140.6C869.1 139.8 869.9 139.3 870.6 139.7Z" fill="#F7C6B8"/>
<g opacity="0.5">
<g opacity="0.5">
<path opacity="0.5" d="M858.6 120.5C854.5 120.5 851.1 123.9 851.1 128V138.5C851.1 140.2 854.5 141.5 858.6 141.5C862.7 141.5 866.1 140.2 866.1 138.5V128C866.1 123.9 862.7 120.5 858.6 120.5Z" fill="url(#paint50_linear)"/>
</g>
</g>
<path d="M858.6 126.5C860.5 126.5 862.1 128.1 862.1 130V140.5H855.1V130C855.1 128.1 856.7 126.5 858.6 126.5Z" fill="url(#paint51_linear)"/>
<path d="M847.6 218.5L849.1 233.5L848.3 239.4C848.2 240 848.7 240.5 849.3 240.5H856.4C857.2 240.5 857.6 239.7 857.3 239L854.2 233.5L855.2 218.5H847.6Z" fill="#F7C6B8"/>
<path d="M848.6 218.5L847.1 170.5H869.1L868.7 218.5H863.4L860.1 179.5H856.1L854.1 218.5H848.6Z" fill="url(#paint52_linear)"/>
<path d="M862.1 218.5V239.5C862.1 240.1 862.5 240.5 863.1 240.5H875.8C876.8 240.5 877.2 239.2 876.4 238.7L868.6 233.5L870.1 218.5H862.1Z" fill="#F7C6B8"/>
<path d="M863.1 140.5L859.6 147L855.1 140.5" stroke="#F7C6B8" stroke-miterlimit="10" stroke-linecap="round"/>
<path d="M859.6 147V155L864.6 158V162" stroke="#F7C6B8" stroke-miterlimit="10" stroke-linecap="round"/>
<path d="M859.6 155L854.6 158V162" stroke="#F7C6B8" stroke-miterlimit="10" stroke-linecap="round"/>
<path d="M869.1 162H847.1" stroke="#F7C6B8" stroke-miterlimit="10"/>
<path d="M849.1 145.5L845.1 164.5L840 152.1" stroke="#EE6D93" stroke-width="4" stroke-miterlimit="10" stroke-linecap="round" stroke-linejoin="round"/>
<path d="M840 152.1L838.1 147.5" stroke="white" stroke-width="4" stroke-miterlimit="10" stroke-linecap="round" stroke-linejoin="round"/>
<path d="M857.1 137.5C856 137.5 855.1 136.6 855.1 135.5V131.5C855.1 130.4 856 129.5 857.1 129.5C858.2 129.5 859.1 130.4 859.1 131.5V135.5C859.1 136.6 858.2 137.5 857.1 137.5Z" fill="white"/>
<path d="M851.1 198.5C853.309 198.5 855.1 196.709 855.1 194.5C855.1 192.291 853.309 190.5 851.1 190.5C848.891 190.5 847.1 192.291 847.1 194.5C847.1 196.709 848.891 198.5 851.1 198.5Z" fill="#F7C6B8"/>
<path d="M868.1 194.5H861.4" stroke="#5FCEB8" stroke-miterlimit="10"/>
<path d="M868.1 198.5C869.757 198.5 871.1 196.709 871.1 194.5C871.1 192.291 869.757 190.5 868.1 190.5C866.443 190.5 865.1 192.291 865.1 194.5C865.1 196.709 866.443 198.5 868.1 198.5Z" fill="#F7C6B8"/>
<path d="M869.1 166.5H847.1V170.5H869.1V166.5Z" fill="url(#paint53_linear)"/>
<path d="M820.1 118.5H810.1V120.5H820.1V118.5Z" fill="#5FCEB8"/>
<path d="M822.1 122.5H810.1V124.5H822.1V122.5Z" fill="#5FCEB8"/>
<path d="M816.1 126.5H810.1V128.5H816.1V126.5Z" fill="#5FCEB8"/>
<path d="M822.1 126.5H819.1V128.5H822.1V126.5Z" fill="#5FCEB8"/>
<path opacity="0.7" d="M916.1 139.5C916.929 139.5 917.6 138.828 917.6 138C917.6 137.172 916.929 136.5 916.1 136.5C915.272 136.5 914.6 137.172 914.6 138C914.6 138.828 915.272 139.5 916.1 139.5Z" fill="url(#paint54_linear)"/>
<path opacity="0.7" d="M911.1 139.5C911.929 139.5 912.6 138.828 912.6 138C912.6 137.172 911.929 136.5 911.1 136.5C910.272 136.5 909.6 137.172 909.6 138C909.6 138.828 910.272 139.5 911.1 139.5Z" fill="url(#paint55_linear)"/>
<path opacity="0.7" d="M906.1 139.5C906.929 139.5 907.6 138.828 907.6 138C907.6 137.172 906.929 136.5 906.1 136.5C905.272 136.5 904.6 137.172 904.6 138C904.6 138.828 905.272 139.5 906.1 139.5Z" fill="url(#paint56_linear)"/>
<path opacity="0.5" d="M915.1 143.5H895.1V161.5H915.1V143.5Z" fill="#5FCEB8"/>
<path d="M1240.1 666.5V403.7L1160.1 357.5" stroke="#5FCEB8" stroke-width="2" stroke-miterlimit="10"/>
<path d="M1208.1 394.5L1248 371.4L1208.1 339V394.5Z" fill="#131057"/>
<path d="M1144.1 357.5V302.1L1208.1 339V394.5L1144.1 357.5Z" fill="#4F48AD"/>
<path d="M1208.1 366.8V339L1144.1 302.1V329.8L1208.1 366.8Z" fill="#5FCEB8"/>
<path d="M1240.1 601.9L1230.3 622.6L1240.2 632L1249.9 615L1240.1 601.9Z" fill="#158772"/>
<path d="M1240.2 632L1246.7 620.6L1240.1 601.9L1230.3 622.6L1240.2 632Z" fill="#5FCEB8"/>
<path d="M1246.7 620.6L1230.3 622.6L1240.2 632L1246.7 620.6Z" fill="#3CAC96"/>
<path d="M1240.1 498.8C1237 500.6 1234.5 505 1234.5 508.6C1234.5 512.2 1237 513.6 1240.2 511.8C1243.4 510 1245.8 505.6 1245.8 502C1245.8 498.5 1243.2 497 1240.1 498.8Z" fill="#5FCEB8"/>
<path d="M1056.4 378.7C1053.3 380.5 1050.8 384.9 1050.8 388.5C1050.8 392.1 1053.3 393.5 1056.5 391.7C1059.6 389.9 1062.1 385.5 1062.1 381.9C1062 378.4 1059.5 376.9 1056.4 378.7Z" fill="#5FCEB8"/>
<path d="M1062.9 273.2C1059.4 274.4 1056.4 277.8 1056.2 280.8C1056 283.8 1058.6 285.2 1062.1 283.9C1065.6 282.7 1068.6 279.3 1068.8 276.3C1069 273.4 1066.4 272 1062.9 273.2Z" stroke="#5FCEB8" stroke-width="2" stroke-miterlimit="10" stroke-linejoin="round"/>
<path d="M1038.1 389.4C1035 391.2 1032.5 395.6 1032.5 399.2C1032.5 402.8 1035 404.2 1038.2 402.4C1041.3 400.6 1043.8 396.2 1043.8 392.6C1043.8 389 1041.2 387.6 1038.1 389.4Z" stroke="#5FCEB8" stroke-width="1.5" stroke-miterlimit="10"/>
<path d="M1240.1 526.7C1237 528.5 1234.5 532.9 1234.5 536.5C1234.5 540.1 1237 541.5 1240.2 539.7C1243.4 537.9 1245.8 533.5 1245.8 529.9C1245.8 526.3 1243.2 524.8 1240.1 526.7Z" fill="#5FCEB8"/>
<path d="M1228.1 355.2L1208.1 366.8V339L1228.1 355.2Z" fill="#3CAC96"/>
<path d="M1176.1 237.4L1120.1 269.7L1144.1 218.9L1176.1 237.4Z" fill="#131057"/>
<path d="M1144.1 218.9L1120.1 269.7L1064 237.4L1088 186.6L1144.1 218.9Z" fill="#4F48AD"/>
<path d="M1128.1 209.8L1104.1 260.7" stroke="#5FCEB8" stroke-width="2" stroke-miterlimit="10"/>
<path d="M1115.6 202.2L1091.5 253.3" stroke="#5FCEB8" stroke-width="2" stroke-miterlimit="10"/>
<path d="M1104 195.8L1080 246.7" stroke="#5FCEB8" stroke-width="2" stroke-miterlimit="10"/>
<path d="M748.6 328.2L749.8 343.6L746.6 352.2L731.3 362.9L721 361.1L705.4 351.7V336.1L707.3 326.4L724.4 316.1L734.6 318.8L748.6 328.2Z" fill="#3CAC96"/>
<path d="M748.6 328.2L745.9 329.4L730.8 322.1L724.4 316.1L734.6 318.8L748.6 328.2Z" fill="#158772"/>
<path d="M730.8 322.1L719.8 334.3L705.4 336.1L707.3 326.4L724.4 316.1L730.8 322.1Z" fill="#3CAC96"/>
<path d="M719.8 334.3L728.6 349.3L721 361.1L705.4 351.7V336.1L719.8 334.3Z" fill="#5FCEB8"/>
<path d="M728.6 349.3L744.1 345.8L746.6 352.2L731.3 362.9L721 361.1L728.6 349.3Z" fill="#3CAC96"/>
<path d="M744.1 345.8L745.9 329.4L748.6 328.2L749.8 343.6L746.6 352.2L744.1 345.8Z" fill="#158772"/>
<path d="M1157.5 482.3L1158.1 489.5L1156.6 493.5L1149.4 498.5L1144.6 497.7L1137.4 493.3V486L1138.2 481.5L1146.2 476.7L1151 478L1157.5 482.3Z" fill="url(#paint57_linear)"/>
<path d="M1157.5 482.3L1156.2 482.9L1149.2 479.5L1146.2 476.7L1151 478L1157.5 482.3Z" fill="#EE6D93"/>
<path d="M1149.2 479.5L1144.1 485.2L1137.4 486L1138.2 481.5L1146.2 476.7L1149.2 479.5Z" fill="url(#paint58_linear)"/>
<path d="M1144.1 485.2L1148.2 492.2L1144.6 497.7L1137.4 493.3V486L1144.1 485.2Z" fill="url(#paint59_linear)"/>
<path d="M1148.2 492.2L1155.4 490.6L1156.6 493.5L1149.4 498.5L1144.6 497.7L1148.2 492.2Z" fill="url(#paint60_linear)"/>
<path d="M1155.4 490.6L1156.2 482.9L1157.5 482.3L1158.1 489.5L1156.6 493.5L1155.4 490.6Z" fill="url(#paint61_linear)"/>
<path d="M1175 516L1175.3 520L1174.5 522.3L1170.5 525.1L1167.8 524.6L1163.7 522.1V518L1164.2 515.5L1168.7 512.8L1171.4 513.5L1175 516Z" fill="url(#paint62_linear)"/>
<path d="M1175 516L1174.3 516.3L1170.4 514.4L1168.7 512.8L1171.4 513.5L1175 516Z" fill="#EE6D93"/>
<path d="M1170.4 514.4L1167.5 517.6L1163.7 518L1164.2 515.5L1168.7 512.8L1170.4 514.4Z" fill="url(#paint63_linear)"/>
<path d="M1167.5 517.6L1169.8 521.5L1167.8 524.6L1163.7 522.1V518L1167.5 517.6Z" fill="url(#paint64_linear)"/>
<path d="M1169.8 521.5L1173.9 520.6L1174.5 522.3L1170.5 525.1L1167.8 524.6L1169.8 521.5Z" fill="url(#paint65_linear)"/>
<path d="M1173.9 520.6L1174.3 516.3L1175 516L1175.3 520L1174.5 522.3L1173.9 520.6Z" fill="url(#paint66_linear)"/>
<path d="M1148.8 516L1149.1 520L1148.3 522.3L1144.2 525.1L1141.6 524.6L1137.5 522.1V518L1138 515.5L1142.4 512.8L1145.1 513.5L1148.8 516Z" fill="url(#paint67_linear)"/>
<path d="M1148.8 516L1148.1 516.3L1144.1 514.4L1142.4 512.8L1145.1 513.5L1148.8 516Z" fill="#EE6D93"/>
<path d="M1144.1 514.4L1141.2 517.6L1137.5 518L1138 515.5L1142.4 512.8L1144.1 514.4Z" fill="url(#paint68_linear)"/>
<path d="M1141.2 517.6L1143.6 521.5L1141.6 524.6L1137.5 522.1V518L1141.2 517.6Z" fill="url(#paint69_linear)"/>
<path d="M1143.6 521.5L1147.6 520.6L1148.3 522.3L1144.2 525.1L1141.6 524.6L1143.6 521.5Z" fill="url(#paint70_linear)"/>
<path d="M1147.6 520.6L1148.1 516.3L1148.8 516L1149.1 520L1148.3 522.3L1147.6 520.6Z" fill="url(#paint71_linear)"/>
<path d="M983.2 492.6L984.1 504.4L981.7 511L969.9 519.3L962.1 517.8L950.1 510.6V498.7L951.5 491.3L964.7 483.3L972.5 485.4L983.2 492.6Z" fill="#3CAC96"/>
<path d="M983.2 492.6L981.1 493.6L969.5 487.9L964.7 483.3L972.5 485.4L983.2 492.6Z" fill="#158772"/>
<path d="M969.5 487.9L961.1 497.3L950.1 498.7L951.5 491.3L964.7 483.3L969.5 487.9Z" fill="#3CAC96"/>
<path d="M961.1 497.3L967.9 508.8L962.1 517.8L950.1 510.6V498.7L961.1 497.3Z" fill="#5FCEB8"/>
<path d="M967.9 508.8L979.8 506.1L981.7 511L969.9 519.3L962.1 517.8L967.9 508.8Z" fill="#3CAC96"/>
<path d="M979.8 506.1L981.1 493.6L983.2 492.6L984.1 504.4L981.7 511L979.8 506.1Z" fill="#158772"/>
<path opacity="0.5" d="M1251.5 208.1C1253.16 208.1 1254.5 206.756 1254.5 205.1C1254.5 203.443 1253.16 202.1 1251.5 202.1C1249.84 202.1 1248.5 203.443 1248.5 205.1C1248.5 206.756 1249.84 208.1 1251.5 208.1Z" fill="#5FCEB8"/>
<path d="M1163.7 488.2C1165.36 488.2 1166.7 486.857 1166.7 485.2C1166.7 483.543 1165.36 482.2 1163.7 482.2C1162.04 482.2 1160.7 483.543 1160.7 485.2C1160.7 486.857 1162.04 488.2 1163.7 488.2Z" fill="url(#paint72_linear)"/>
<path d="M1158.1 513C1159.76 513 1161.1 511.657 1161.1 510C1161.1 508.343 1159.76 507 1158.1 507C1156.44 507 1155.1 508.343 1155.1 510C1155.1 511.657 1156.44 513 1158.1 513Z" fill="url(#paint73_linear)"/>
<path d="M1128.1 484.2C1129.2 484.2 1130.1 483.305 1130.1 482.2C1130.1 481.096 1129.2 480.2 1128.1 480.2C1127 480.2 1126.1 481.096 1126.1 482.2C1126.1 483.305 1127 484.2 1128.1 484.2Z" fill="url(#paint74_linear)"/>
<path d="M1170.4 540.4C1171.5 540.4 1172.4 539.505 1172.4 538.4C1172.4 537.296 1171.5 536.4 1170.4 536.4C1169.3 536.4 1168.4 537.296 1168.4 538.4C1168.4 539.505 1169.3 540.4 1170.4 540.4Z" fill="url(#paint75_linear)"/>
<path d="M1112.1 523.5C1113.2 523.5 1114.1 522.605 1114.1 521.5C1114.1 520.395 1113.2 519.5 1112.1 519.5C1111 519.5 1110.1 520.395 1110.1 521.5C1110.1 522.605 1111 523.5 1112.1 523.5Z" fill="url(#paint76_linear)"/>
<path d="M576 578.7C577.657 578.7 579 577.357 579 575.7C579 574.043 577.657 572.7 576 572.7C574.343 572.7 573 574.043 573 575.7C573 577.357 574.343 578.7 576 578.7Z" fill="url(#paint77_linear)"/>
<path d="M751.9 289C753.004 289 753.9 288.105 753.9 287C753.9 285.895 753.004 285 751.9 285C750.795 285 749.9 285.895 749.9 287C749.9 288.105 750.795 289 751.9 289Z" fill="url(#paint78_linear)"/>
<path d="M976.1 248.1C977.205 248.1 978.1 247.204 978.1 246.1C978.1 244.995 977.205 244.1 976.1 244.1C974.996 244.1 974.1 244.995 974.1 246.1C974.1 247.204 974.996 248.1 976.1 248.1Z" fill="url(#paint79_linear)"/>
<path d="M940.1 210.3C941.205 210.3 942.1 209.404 942.1 208.3C942.1 207.195 941.205 206.3 940.1 206.3C938.996 206.3 938.1 207.195 938.1 208.3C938.1 209.404 938.996 210.3 940.1 210.3Z" fill="url(#paint80_linear)"/>
<path d="M955.1 241.4C956.205 241.4 957.1 240.505 957.1 239.4C957.1 238.296 956.205 237.4 955.1 237.4C953.996 237.4 953.1 238.296 953.1 239.4C953.1 240.505 953.996 241.4 955.1 241.4Z" fill="url(#paint81_linear)"/>
<path d="M926.1 244.1C927.205 244.1 928.1 243.204 928.1 242.1C928.1 240.995 927.205 240.1 926.1 240.1C924.996 240.1 924.1 240.995 924.1 242.1C924.1 243.204 924.996 244.1 926.1 244.1Z" fill="url(#paint82_linear)"/>
<path d="M958.1 177C959.757 177 961.1 175.657 961.1 174C961.1 172.343 959.757 171 958.1 171C956.443 171 955.1 172.343 955.1 174C955.1 175.657 956.443 177 958.1 177Z" fill="url(#paint83_linear)"/>
<path d="M964.1 197.5C965.757 197.5 967.1 196.157 967.1 194.5C967.1 192.843 965.757 191.5 964.1 191.5C962.443 191.5 961.1 192.843 961.1 194.5C961.1 196.157 962.443 197.5 964.1 197.5Z" fill="url(#paint84_linear)"/>
<path d="M736 289.8C736.828 289.8 737.5 289.128 737.5 288.3C737.5 287.471 736.828 286.8 736 286.8C735.172 286.8 734.5 287.471 734.5 288.3C734.5 289.128 735.172 289.8 736 289.8Z" fill="url(#paint85_linear)"/>
<path d="M744.9 271.6C745.452 271.6 745.9 271.152 745.9 270.6C745.9 270.047 745.452 269.6 744.9 269.6C744.348 269.6 743.9 270.047 743.9 270.6C743.9 271.152 744.348 271.6 744.9 271.6Z" fill="url(#paint86_linear)"/>
<path d="M740 280.2C740.276 280.2 740.5 279.976 740.5 279.7C740.5 279.424 740.276 279.2 740 279.2C739.724 279.2 739.5 279.424 739.5 279.7C739.5 279.976 739.724 280.2 740 280.2Z" fill="url(#paint87_linear)"/>
<path d="M735.8 297.3C736.076 297.3 736.3 297.076 736.3 296.8C736.3 296.524 736.076 296.3 735.8 296.3C735.524 296.3 735.3 296.524 735.3 296.8C735.3 297.076 735.524 297.3 735.8 297.3Z" fill="url(#paint88_linear)"/>
<path d="M547 584.7C548.657 584.7 550 583.357 550 581.7C550 580.043 548.657 578.7 547 578.7C545.343 578.7 544 580.043 544 581.7C544 583.357 545.343 584.7 547 584.7Z" fill="url(#paint89_linear)"/>
<path d="M565.4 609.6C567.057 609.6 568.4 608.256 568.4 606.6C568.4 604.943 567.057 603.6 565.4 603.6C563.743 603.6 562.4 604.943 562.4 606.6C562.4 608.256 563.743 609.6 565.4 609.6Z" fill="url(#paint90_linear)"/>
<path d="M535.5 564.5C536.605 564.5 537.5 563.605 537.5 562.5C537.5 561.395 536.605 560.5 535.5 560.5C534.395 560.5 533.5 561.395 533.5 562.5C533.5 563.605 534.395 564.5 535.5 564.5Z" fill="url(#paint91_linear)"/>
<path d="M600.1 591.1C601.205 591.1 602.1 590.204 602.1 589.1C602.1 587.995 601.205 587.1 600.1 587.1C598.996 587.1 598.1 587.995 598.1 589.1C598.1 590.204 598.996 591.1 600.1 591.1Z" fill="url(#paint92_linear)"/>
<path d="M584.1 544.4C584.652 544.4 585.1 543.953 585.1 543.4C585.1 542.848 584.652 542.4 584.1 542.4C583.548 542.4 583.1 542.848 583.1 543.4C583.1 543.953 583.548 544.4 584.1 544.4Z" fill="url(#paint93_linear)"/>
<path d="M560.1 557.1C560.652 557.1 561.1 556.652 561.1 556.1C561.1 555.547 560.652 555.1 560.1 555.1C559.548 555.1 559.1 555.547 559.1 556.1C559.1 556.652 559.548 557.1 560.1 557.1Z" fill="url(#paint94_linear)"/>
<path d="M520.3 547.5C520.852 547.5 521.3 547.052 521.3 546.5C521.3 545.948 520.852 545.5 520.3 545.5C519.748 545.5 519.3 545.948 519.3 546.5C519.3 547.052 519.748 547.5 520.3 547.5Z" fill="url(#paint95_linear)"/>
<path d="M554.7 522.9C555.252 522.9 555.7 522.453 555.7 521.9C555.7 521.348 555.252 520.9 554.7 520.9C554.148 520.9 553.7 521.348 553.7 521.9C553.7 522.453 554.148 522.9 554.7 522.9Z" fill="url(#paint96_linear)"/>
<path d="M1175.7 482.2L1173.2 499.5L1166 495.9L1175.7 482.2Z" fill="url(#paint97_linear)"/>
<path d="M1175.7 482.2L1173.2 499.5L1186.2 496.2L1175.7 482.2Z" fill="#F7C6B8"/>
<path d="M1186.2 496.2L1175.7 509.1L1173.2 499.5L1186.2 496.2Z" fill="url(#paint98_linear)"/>
<path d="M1175.7 509.1L1166 495.9L1173.2 499.5L1175.7 509.1Z" fill="url(#paint99_linear)"/>
<path d="M1122.3 492.9L1120.5 505L1115.5 502.5L1122.3 492.9Z" fill="url(#paint100_linear)"/>
<path d="M1122.3 492.9L1120.5 505L1129.6 502.7L1122.3 492.9Z" fill="#F7C6B8"/>
<path d="M1129.6 502.7L1122.3 511.8L1120.5 505L1129.6 502.7Z" fill="url(#paint101_linear)"/>
<path d="M1122.3 511.8L1115.5 502.5L1120.5 505L1122.3 511.8Z" fill="url(#paint102_linear)"/>
<path d="M1200.2 436.1V445.2L1168.2 426.8L1168.1 417.5L1200.2 436.1Z" fill="url(#paint103_linear)"/>
<path d="M1160.2 445.5V454.7L1128.2 436.2L1128.1 427L1160.2 445.5Z" fill="url(#paint104_linear)"/>
<path d="M1112.1 367.1V376.2L1080.1 357.8V348.5L1112.1 367.1Z" fill="#5FCEB8"/>
<path d="M1064.1 330.1V339.2L1032.1 320.8V311.5L1064.1 330.1Z" fill="#5FCEB8"/>
<path d="M1112 450V459.1L1064 431.4V422.2L1112 450Z" fill="url(#paint105_linear)"/>
<path d="M1080.2 450.2V459.3L1032.2 431.6L1032.1 422.3L1080.2 450.2Z" fill="url(#paint106_linear)"/>
<path d="M1042.6 490.2C1041.1 489.3 1041.1 487.9 1042.6 487C1044.1 486.1 1046.6 486.1 1048.2 487C1049.7 487.9 1049.8 489.3 1048.2 490.2C1046.6 491.1 1044.1 491.1 1042.6 490.2ZM1049.5 486.1C1047.2 484.8 1043.4 484.8 1041.1 486.1C1038.8 487.4 1038.8 489.6 1041.1 491C1043.4 492.3 1047.2 492.3 1049.5 491C1051.8 489.7 1051.9 487.5 1049.5 486.1Z" fill="#5FCEB8"/>
<path d="M535.6 434.4L539.8 431.9L551.7 448.9L547.4 451.4L535.6 434.4Z" fill="#266C5E"/>
<path d="M547.4 451.4L551.7 448.9L549.9 450.6L545.7 453L547.4 451.4Z" fill="#18453C"/>
<path d="M529.6 398.2L533.8 395.7C531.5 397 530.1 399.8 530.1 403.8C530.1 412.6 533.7 423.1 539.8 431.8L535.6 434.3C529.5 425.5 525.9 415 525.9 406.3C525.9 402.3 527.3 399.5 529.6 398.2Z" fill="#24675A"/>
<path d="M527.6 394.8L531.8 392.3C534.6 390.7 538.5 390.9 542.8 393.4L538.6 395.9C534.3 393.4 530.4 393.1 527.6 394.8Z" fill="#24675A"/>
<path d="M546.7 400.5V403.8L538.6 399.1C531.6 395.1 526 398.3 525.9 406.3C525.9 415.1 529.5 425.6 535.6 434.3L547.4 451.3L545.7 452.9L533.9 435.9C527.1 426.1 523 414.4 523.1 404.6C523.1 394.8 530.1 390.8 538.6 395.8L546.7 400.5Z" fill="#379D89"/>
<path d="M546.7 400.5L550.9 398.1V401.3L546.7 403.8V400.5Z" fill="#1C4F45"/>
<path d="M538.6 395.8L542.8 393.4L550.9 398.1L546.7 400.5L538.6 395.8Z" fill="#266D5F"/>
<path d="M580.7 476.3C558.6 476.3 540.7 458.4 540.7 436.3V411.3H620.7V436.3C620.7 458.4 602.8 476.3 580.7 476.3Z" fill="url(#paint107_linear)"/>
<path d="M606.1 397.6C592 389.5 569.2 389.5 555.2 397.6C541.2 405.7 541.3 419 555.4 427.1C569.5 435.2 592.3 435.2 606.3 427.1C620.3 419 620.2 405.7 606.1 397.6Z" fill="url(#paint108_linear)"/>
<path d="M555.4 427.1C541.3 419 541.2 405.7 555.2 397.6C569.2 389.5 592 389.5 606.1 397.6C620.2 405.7 620.3 419 606.3 427.1C592.3 435.2 569.4 435.2 555.4 427.1ZM608.9 396C593.2 387 567.9 387 552.3 396C536.7 405 536.8 419.699 552.5 428.799C568.2 437.799 593.5 437.799 609.1 428.799C624.7 419.699 624.6 405 608.9 396Z" fill="#5FCEB8"/>
<g opacity="0.6">
<path opacity="0.6" d="M546.5 418C546.5 418 551.1 382 538.2 358.5C522.5 330.2 549.1 293.6 549.1 293.6H617.2C617.2 293.6 589.7 336.7 604.3 361.7C626.1 399.1 615.7 418.2 615.7 418.2L546.5 418Z" fill="url(#paint109_linear)"/>
</g>
<g opacity="0.3">
<path opacity="0.3" d="M546.5 418C546.5 418 551.1 382 538.2 358.5C522.5 330.2 549.1 293.6 549.1 293.6C549.1 293.6 530.9 341.3 559.7 361.7C595 386.8 595.7 418.2 595.7 418.2L546.5 418Z" fill="url(#paint110_linear)"/>
</g>
<g opacity="0.6">
<path opacity="0.6" d="M570.5 418C570.5 418 601.4 401.4 591.2 367.6C581.1 334.3 617.1 293.6 617.1 293.6C617.1 293.6 589.6 336.7 604.2 361.7C626 399.1 615.6 418.2 615.6 418.2L570.5 418Z" fill="url(#paint111_linear)"/>
</g>
<path d="M606.1 407C592 398.8 569.2 398.8 555.2 407C550.3 409.9 547.2 413.3 545.7 417C547.2 420.7 550.4 424.2 555.4 427.1C569.5 435.2 592.3 435.2 606.3 427.1C611.2 424.3 614.4 420.8 615.8 417.1C614.3 413.4 611.1 409.9 606.1 407Z" fill="url(#paint112_linear)"/>
<path d="M1262 152.133L1249.6 159.333L1231.07 207.2L1212.27 180.8L1199.73 188L1231.07 232L1262 152.133Z" fill="#5FCEB8"/>
<path d="M1249.6 159.333L1238.13 165.867L1230.93 184.4L1223.73 174.267L1212.27 180.8L1231.07 207.2L1249.6 159.333Z" fill="white"/>
<path d="M1253.9 217.8C1240.6 210.1 1219.2 210.1 1206 217.8C1192.8 225.5 1192.9 237.9 1206.2 245.5C1219.5 253.2 1240.9 253.2 1254.1 245.5C1267.3 237.8 1267.1 225.4 1253.9 217.8Z" fill="url(#paint113_linear)"/>
<path d="M1240.1 120.2H1230H1220L1196.4 229.6L1230 232.6L1263.6 229.6L1240.1 120.2Z" fill="url(#paint114_linear)"/>
<path d="M1244.1 223.5C1236.3 219 1223.6 219 1215.8 223.5C1208 228 1208.1 235.4 1215.9 239.9C1223.7 244.4 1236.4 244.4 1244.2 239.9C1252 235.3 1251.9 228 1244.1 223.5Z" fill="url(#paint115_linear)"/>
<path d="M1200.1 94.2L1144.1 61.9001L1184.1 38.8L1240.1 71.1L1200.1 94.2Z" fill="#31297F"/>
<path d="M1240.1 71.1001V75.4001L1200.1 98.4001V94.2001L1240.1 71.1001Z" fill="#131057"/>
<path d="M1200.1 94.2001V98.4001L1144.1 66.1001V61.9001L1200.1 94.2001Z" fill="#413A99"/>
<path d="M1248.1 140.4V94.2001L1288.1 71.1001V117.3L1248.1 140.4Z" fill="#131057"/>
<path d="M1248.1 94.2001L1208.1 71.1001V117.3L1248.1 140.4V94.2001Z" fill="#413A99"/>
<path d="M1288.1 71.1L1248 48L1208.1 71.1L1248.1 94.2L1288.1 71.1Z" fill="#31297F"/>
<path d="M1248 85.0999L1272.1 71.0999L1256.1 52.7L1248.1 57.2999L1248 85.0999Z" fill="#131057"/>
<path d="M1248 85.0999L1224 71.0999V43.3999L1248.1 57.2999L1248 85.0999Z" fill="#413A99"/>
<path d="M1312 149.7L1256.1 117.3L1296.1 94.2L1352 126.6L1312 149.7Z" fill="#31297F"/>
<path d="M1352 126.6V130.8L1312 153.9V149.7L1352 126.6Z" fill="#131057"/>
<path d="M1312 149.7V153.9L1256.1 121.6V117.3L1312 149.7Z" fill="#413A99"/>
<path d="M1312.1 103.5L1272.1 126.6V131.2" stroke="#5FCEB8" stroke-width="2" stroke-miterlimit="10" stroke-linecap="round"/>
<path d="M1320.1 108.1L1280 131.2V135.8" stroke="#5FCEB8" stroke-width="2" stroke-miterlimit="10" stroke-linecap="round"/>
<path d="M1328.1 112.7L1288.1 135.8V140.4" stroke="#5FCEB8" stroke-width="2" stroke-miterlimit="10" stroke-linecap="round"/>
<path d="M1336.1 117.3L1296.1 140.4V145" stroke="#5FCEB8" stroke-width="2" stroke-miterlimit="10" stroke-linecap="round"/>
<path d="M1200.1 48L1160.1 71.1V75.7" stroke="#5FCEB8" stroke-width="2" stroke-miterlimit="10" stroke-linecap="round"/>
<path d="M1208.1 52.7L1168 75.6999V80.4" stroke="#5FCEB8" stroke-width="2" stroke-miterlimit="10" stroke-linecap="round"/>
<path d="M1216.1 57.3L1176.1 80.4001V85" stroke="#5FCEB8" stroke-width="2" stroke-miterlimit="10" stroke-linecap="round"/>
<path d="M1224.1 61.8999L1184.1 84.9999V89.5999" stroke="#5FCEB8" stroke-width="2" stroke-miterlimit="10" stroke-linecap="round"/>
<path d="M1218.2 83.1C1244.7 83.1 1266.1 64.5 1266.1 41.6C1266.1 18.7 1244.6 0 1218.2 0V83.1Z" fill="#131057"/>
<path d="M1218.2 83C1235.93 83 1250.3 64.4198 1250.3 41.5C1250.3 18.5802 1235.93 0 1218.2 0C1200.47 0 1186.1 18.5802 1186.1 41.5C1186.1 64.4198 1200.47 83 1218.2 83Z" fill="#4F48AD"/>
<path d="M1233.5 53.6001C1230.3 53.6001 1227.7 48.2001 1227.7 41.6001C1227.7 35.0001 1230.3 29.6001 1233.5 29.6001" stroke="#3CAC96" stroke-width="2" stroke-miterlimit="10"/>
<path d="M1240.5 53.6001C1237.3 53.6001 1234.7 48.2001 1234.7 41.6001C1234.7 35.0001 1237.3 29.6001 1240.5 29.6001" stroke="#3CAC96" stroke-width="2" stroke-miterlimit="10"/>
<path d="M1218.9 41.5H1250.2" stroke="#131057" stroke-width="2" stroke-miterlimit="10"/>
<path d="M1233.5 29.5C1236.7 29.5 1239.3 34.9 1239.3 41.5C1239.3 48.1 1236.7 53.5 1233.5 53.5" stroke="#3CAC96" stroke-width="2" stroke-miterlimit="10"/>
<path d="M1240.5 29.5C1243.7 29.5 1246.3 34.9 1246.3 41.5C1246.3 48.1 1243.7 53.5 1240.5 53.5" stroke="#3CAC96" stroke-width="2" stroke-miterlimit="10"/>
<path d="M1218.2 49.4001C1222.56 49.4001 1226.1 45.8631 1226.1 41.5001C1226.1 37.137 1222.56 33.6001 1218.2 33.6001C1213.84 33.6001 1210.3 37.137 1210.3 41.5001C1210.3 45.8631 1213.84 49.4001 1218.2 49.4001Z" fill="#5FCEB8"/>
<path d="M1216.1 112.7L1224.1 108.1L1240.1 117.4V126.6L1216.1 112.7Z" fill="#4F48AD"/>
<path d="M1224.1 108.1L1224.2 89.6001L1216 85.1001L1216.1 112.7L1224.1 108.1Z" fill="#131057"/>
<path d="M1224.2 89.6001L1169.3 120.5L1202.9 139.5L1240.1 117.4L1224.2 89.6001Z" fill="url(#paint116_linear)"/>
<path d="M1240.1 98.9001V117.4L1224.1 108.1L1224.2 89.6001L1240.1 98.9001Z" fill="url(#paint117_linear)"/>
<path d="M564.8 549.4L557.8 561.5L571.4 569.3L557.9 592.6L564.5 596.3L578 573L571.5 553.2L564.8 549.4Z" fill="url(#paint118_linear)"/>
<path d="M540.3 564.1L547 567.9L526.9 602.5L520.3 598.7L540.3 564.1Z" fill="url(#paint119_linear)"/>
<path d="M571.5 553.2L564.5 565.3L578 573L564.5 596.3L571.6 600.4L592.1 564.9L571.5 553.2Z" fill="url(#paint120_linear)"/>
<path d="M546.9 567.9L553.8 571.8L540.6 594.6L553.9 602.1L547.1 614L526.9 602.5L546.9 567.9Z" fill="url(#paint121_linear)"/>
<path d="M769 528L705.1 490.6" stroke="#5FCEB8" stroke-width="2" stroke-miterlimit="10" stroke-linecap="round" stroke-linejoin="round"/>
<path d="M816 593.4L800 602.6V614.5" stroke="#5FCEB8" stroke-width="2" stroke-miterlimit="10" stroke-linecap="round" stroke-linejoin="round"/>
<path d="M799.5 628.901C796.4 627.101 793.8 622.7 793.8 619.1C793.8 615.5 796.4 614.001 799.5 615.901C802.6 617.701 805.2 622.1 805.2 625.7C805.2 629.3 802.6 630.701 799.5 628.901ZM799.5 613.401C795.2 610.901 791.7 612.901 791.7 617.901C791.7 622.901 795.2 628.901 799.5 631.401C803.8 633.901 807.3 631.901 807.3 626.901C807.3 621.901 803.8 615.901 799.5 613.401Z" fill="#5FCEB8"/>
<path d="M856 615.9L840.1 625.1V637" stroke="#5FCEB8" stroke-width="2" stroke-miterlimit="10" stroke-linecap="round" stroke-linejoin="round"/>
<path d="M839.5 651.401C836.4 649.601 833.8 645.2 833.8 641.6C833.8 638 836.4 636.601 839.5 638.401C842.6 640.201 845.2 644.6 845.2 648.2C845.2 651.7 842.6 653.201 839.5 651.401ZM839.6 635.901C835.3 633.401 831.8 635.401 831.8 640.401C831.8 645.401 835.3 651.401 839.6 653.901C843.9 656.401 847.4 654.401 847.4 649.401C847.3 644.401 843.9 638.401 839.6 635.901Z" fill="#5FCEB8"/>
</g>
<defs>
<filter id="filter0_f" x="-48" y="200" width="1448" height="889" filterUnits="userSpaceOnUse" color-interpolation-filters="sRGB">
<feFlood flood-opacity="0" result="BackgroundImageFix"/>
<feBlend mode="normal" in="SourceGraphic" in2="BackgroundImageFix" result="shape"/>
<feGaussianBlur stdDeviation="24" result="effect1_foregroundBlur"/>
</filter>
<radialGradient id="paint0_radial" cx="0" cy="0" r="1" gradientUnits="userSpaceOnUse" gradientTransform="translate(669.238 657.097) rotate(-180) scale(669.238 377.473)">
<stop stop-color="#FF6EA9"/>
<stop offset="1" stop-color="#F7C6B8" stop-opacity="0"/>
</radialGradient>
<linearGradient id="paint1_linear" x1="772.05" y1="283.444" x2="772.05" y2="351.751" gradientUnits="userSpaceOnUse">
<stop stop-color="#F7C6B8" stop-opacity="0"/>
<stop offset="1" stop-color="#EE6D93"/>
</linearGradient>
<linearGradient id="paint2_linear" x1="772.05" y1="299.444" x2="772.05" y2="367.751" gradientUnits="userSpaceOnUse">
<stop stop-color="#F7C6B8" stop-opacity="0"/>
<stop offset="1" stop-color="#EE6D93"/>
</linearGradient>
<linearGradient id="paint3_linear" x1="1075.33" y1="841.5" x2="1131.66" y2="370.406" gradientUnits="userSpaceOnUse">
<stop stop-color="#EE6D93"/>
<stop offset="1" stop-color="#F7C6B8" stop-opacity="0"/>
</linearGradient>
<linearGradient id="paint4_linear" x1="580.734" y1="481.347" x2="580.734" y2="540.017" gradientUnits="userSpaceOnUse">
<stop stop-color="#5FCEB8" stop-opacity="0"/>
<stop offset="1" stop-color="#5FCEB8"/>
</linearGradient>
<linearGradient id="paint5_linear" x1="580.734" y1="461.347" x2="580.734" y2="520.017" gradientUnits="userSpaceOnUse">
<stop stop-color="#5FCEB8" stop-opacity="0"/>
<stop offset="1" stop-color="#5FCEB8"/>
</linearGradient>
<linearGradient id="paint6_linear" x1="1072.1" y1="503.627" x2="1072.1" y2="367.798" gradientUnits="userSpaceOnUse">
<stop stop-color="#131057"/>
<stop offset="1" stop-color="#4F48AD"/>
</linearGradient>
<linearGradient id="paint7_linear" x1="1168.1" y1="664.154" x2="1168.1" y2="407.98" gradientUnits="userSpaceOnUse">
<stop stop-color="#131057"/>
<stop offset="1" stop-color="#4F48AD"/>
</linearGradient>
<linearGradient id="paint8_linear" x1="1114.36" y1="291.881" x2="1111.08" y2="239.685" gradientUnits="userSpaceOnUse">
<stop stop-color="#F7C6B8"/>
<stop offset="1" stop-color="#EE6D93"/>
</linearGradient>
<linearGradient id="paint9_linear" x1="1117.45" y1="272.002" x2="1127.29" y2="248.595" gradientUnits="userSpaceOnUse">
<stop stop-color="#F7C6B8"/>
<stop offset="1" stop-color="#EE6D93"/>
</linearGradient>
<linearGradient id="paint10_linear" x1="1000.68" y1="139.918" x2="1020.42" y2="176.389" gradientUnits="userSpaceOnUse">
<stop stop-color="#4F48AD"/>
<stop offset="1" stop-color="#131057"/>
</linearGradient>
<linearGradient id="paint11_linear" x1="1000.1" y1="140.349" x2="1032.12" y2="140.349" gradientUnits="userSpaceOnUse">
<stop stop-color="#F7C6B8"/>
<stop offset="1" stop-color="#EE6D93"/>
</linearGradient>
<linearGradient id="paint12_linear" x1="792.207" y1="212.184" x2="743.903" y2="216.84" gradientUnits="userSpaceOnUse">
<stop stop-color="#31297F"/>
<stop offset="1" stop-color="#131057"/>
</linearGradient>
<linearGradient id="paint13_linear" x1="599.704" y1="484.384" x2="735.144" y2="378.417" gradientUnits="userSpaceOnUse">
<stop stop-color="#5FCEB8" stop-opacity="0"/>
<stop offset="1" stop-color="#5FCEB8"/>
</linearGradient>
<linearGradient id="paint14_linear" x1="1243.29" y1="504.041" x2="1267.35" y2="522.965" gradientUnits="userSpaceOnUse">
<stop stop-color="#5FCEB8" stop-opacity="0.5"/>
<stop offset="1" stop-color="#5FCEB8" stop-opacity="0"/>
</linearGradient>
<linearGradient id="paint15_linear" x1="1243.29" y1="531.885" x2="1267.35" y2="550.809" gradientUnits="userSpaceOnUse">
<stop stop-color="#5FCEB8" stop-opacity="0.5"/>
<stop offset="1" stop-color="#5FCEB8" stop-opacity="0"/>
</linearGradient>
<linearGradient id="paint16_linear" x1="783.456" y1="214.321" x2="740.231" y2="214.321" gradientUnits="userSpaceOnUse">
<stop stop-color="#5FCEB8"/>
<stop offset="1" stop-color="#31297F"/>
</linearGradient>
<linearGradient id="paint17_linear" x1="649.243" y1="468.488" x2="668.516" y2="468.488" gradientUnits="userSpaceOnUse">
<stop stop-color="#F7C6B8"/>
<stop offset="1" stop-color="#EE6D93"/>
</linearGradient>
<linearGradient id="paint18_linear" x1="641.182" y1="503.961" x2="658.88" y2="503.961" gradientUnits="userSpaceOnUse">
<stop stop-color="#F7C6B8"/>
<stop offset="1" stop-color="#EE6D93"/>
</linearGradient>
<linearGradient id="paint19_linear" x1="644.724" y1="518.622" x2="635.599" y2="527.746" gradientUnits="userSpaceOnUse">
<stop stop-color="#F7C6B8"/>
<stop offset="1" stop-color="#EE6D93"/>
</linearGradient>
<linearGradient id="paint20_linear" x1="666.426" y1="529.887" x2="666.525" y2="548.136" gradientUnits="userSpaceOnUse">
<stop stop-color="#F7C6B8"/>
<stop offset="1" stop-color="#EE6D93"/>
</linearGradient>
<linearGradient id="paint21_linear" x1="672.624" y1="510.253" x2="645.54" y2="511.246" gradientUnits="userSpaceOnUse">
<stop stop-color="#F7C6B8"/>
<stop offset="1" stop-color="#EE6D93"/>
</linearGradient>
<linearGradient id="paint22_linear" x1="645.114" y1="466.385" x2="659.568" y2="466.385" gradientUnits="userSpaceOnUse">
<stop stop-color="#F7C6B8"/>
<stop offset="1" stop-color="#EE6D93"/>
</linearGradient>
<linearGradient id="paint23_linear" x1="640.295" y1="466.385" x2="654.75" y2="466.385" gradientUnits="userSpaceOnUse">
<stop stop-color="#F7C6B8"/>
<stop offset="1" stop-color="#EE6D93"/>
</linearGradient>
<linearGradient id="paint24_linear" x1="658.601" y1="455.573" x2="658.601" y2="435.071" gradientUnits="userSpaceOnUse">
<stop stop-color="#F7C6B8"/>
<stop offset="1" stop-color="#EE6D93"/>
</linearGradient>
<linearGradient id="paint25_linear" x1="658.601" y1="440.153" x2="658.601" y2="453.347" gradientUnits="userSpaceOnUse">
<stop stop-color="#F7C6B8"/>
<stop offset="1" stop-color="#EE6D93"/>
</linearGradient>
<linearGradient id="paint26_linear" x1="556.147" y1="619.61" x2="556.147" y2="556.733" gradientUnits="userSpaceOnUse">
<stop stop-color="#158772"/>
<stop offset="1" stop-color="#5FCEB8"/>
</linearGradient>
<linearGradient id="paint27_linear" x1="580.078" y1="650.61" x2="580.078" y2="578.358" gradientUnits="userSpaceOnUse">
<stop stop-color="#158772"/>
<stop offset="1" stop-color="#5FCEB8"/>
</linearGradient>
<linearGradient id="paint28_linear" x1="556.027" y1="634.224" x2="556.027" y2="520.24" gradientUnits="userSpaceOnUse">
<stop stop-color="#5FCEB8"/>
<stop offset="1" stop-color="#5FCEB8" stop-opacity="0"/>
</linearGradient>
<linearGradient id="paint29_linear" x1="791.198" y1="210.972" x2="782.507" y2="215.77" gradientUnits="userSpaceOnUse">
<stop stop-color="#F7C6B8"/>
<stop offset="1" stop-color="#EE6D93"/>
</linearGradient>
<linearGradient id="paint30_linear" x1="1177.31" y1="495.131" x2="1156.84" y2="508.004" gradientUnits="userSpaceOnUse">
<stop stop-color="#F7C6B8"/>
<stop offset="1" stop-color="#EE6D93"/>
</linearGradient>
<linearGradient id="paint31_linear" x1="1207.89" y1="498.043" x2="1176.24" y2="522.312" gradientUnits="userSpaceOnUse">
<stop stop-color="#F7C6B8"/>
<stop offset="1" stop-color="#EE6D93"/>
</linearGradient>
<linearGradient id="paint32_linear" x1="832.101" y1="286.038" x2="1048.1" y2="286.038" gradientUnits="userSpaceOnUse">
<stop stop-color="#F7C6B8"/>
<stop offset="0.8" stop-color="#EE6D93" stop-opacity="0"/>
</linearGradient>
<linearGradient id="paint33_linear" x1="757.435" y1="272.078" x2="732.185" y2="290.515" gradientUnits="userSpaceOnUse">
<stop stop-color="#EE6D93"/>
<stop offset="1" stop-color="#F7C6B8" stop-opacity="0"/>
</linearGradient>
<linearGradient id="paint34_linear" x1="1040.87" y1="227.458" x2="934.416" y2="227.458" gradientUnits="userSpaceOnUse">
<stop stop-color="#EE6D93"/>
<stop offset="1" stop-color="#F7C6B8" stop-opacity="0"/>
</linearGradient>
<linearGradient id="paint35_linear" x1="964.101" y1="205.104" x2="988.075" y2="205.104" gradientUnits="userSpaceOnUse">
<stop stop-color="#F7C6B8"/>
<stop offset="1" stop-color="#EE6D93"/>
</linearGradient>
<linearGradient id="paint36_linear" x1="1152.75" y1="75.716" x2="1106.06" y2="101.686" gradientUnits="userSpaceOnUse">
<stop offset="0.00122196" stop-color="#F7C6B8" stop-opacity="0"/>
<stop offset="1" stop-color="#EE6D93"/>
</linearGradient>
<linearGradient id="paint37_linear" x1="1112.85" y1="52.5726" x2="1066.16" y2="78.5426" gradientUnits="userSpaceOnUse">
<stop offset="0.00122196" stop-color="#F7C6B8" stop-opacity="0"/>
<stop offset="1" stop-color="#EE6D93"/>
</linearGradient>
<linearGradient id="paint38_linear" x1="1057.17" y1="64.6484" x2="1066.11" y2="80.74" gradientUnits="userSpaceOnUse">
<stop stop-color="#4F48AD"/>
<stop offset="1" stop-color="#131057"/>
</linearGradient>
<linearGradient id="paint39_linear" x1="1050.36" y1="89.3886" x2="1040.48" y2="94.8375" gradientUnits="userSpaceOnUse">
<stop stop-color="#F7C6B8"/>
<stop offset="1" stop-color="#EE6D93"/>
</linearGradient>
<linearGradient id="paint40_linear" x1="1096.81" y1="87.0032" x2="1105.75" y2="103.095" gradientUnits="userSpaceOnUse">
<stop stop-color="#4F48AD"/>
<stop offset="1" stop-color="#131057"/>
</linearGradient>
<linearGradient id="paint41_linear" x1="1090" y1="111.743" x2="1080.13" y2="117.192" gradientUnits="userSpaceOnUse">
<stop stop-color="#F7C6B8"/>
<stop offset="1" stop-color="#EE6D93"/>
</linearGradient>
<linearGradient id="paint42_linear" x1="771.683" y1="280.068" x2="748.668" y2="278.867" gradientUnits="userSpaceOnUse">
<stop stop-color="#F7C6B8"/>
<stop offset="1" stop-color="#EE6D93"/>
</linearGradient>
<linearGradient id="paint43_linear" x1="920.101" y1="150.524" x2="920.101" y2="170.066" gradientUnits="userSpaceOnUse">
<stop stop-color="#F7C6B8"/>
<stop offset="1" stop-color="#EE6D93"/>
</linearGradient>
<linearGradient id="paint44_linear" x1="912.101" y1="150.524" x2="912.101" y2="170.066" gradientUnits="userSpaceOnUse">
<stop stop-color="#F7C6B8"/>
<stop offset="1" stop-color="#EE6D93"/>
</linearGradient>
<linearGradient id="paint45_linear" x1="902.101" y1="150.524" x2="902.101" y2="170.066" gradientUnits="userSpaceOnUse">
<stop stop-color="#F7C6B8"/>
<stop offset="1" stop-color="#EE6D93"/>
</linearGradient>
<linearGradient id="paint46_linear" x1="801.101" y1="150.524" x2="801.101" y2="170.066" gradientUnits="userSpaceOnUse">
<stop stop-color="#F7C6B8"/>
<stop offset="1" stop-color="#EE6D93"/>
</linearGradient>
<linearGradient id="paint47_linear" x1="809.101" y1="150.524" x2="809.101" y2="170.066" gradientUnits="userSpaceOnUse">
<stop stop-color="#F7C6B8"/>
<stop offset="1" stop-color="#EE6D93"/>
</linearGradient>
<linearGradient id="paint48_linear" x1="817.101" y1="150.524" x2="817.101" y2="170.066" gradientUnits="userSpaceOnUse">
<stop stop-color="#F7C6B8"/>
<stop offset="1" stop-color="#EE6D93"/>
</linearGradient>
<linearGradient id="paint49_linear" x1="858.101" y1="170.592" x2="858.101" y2="138.888" gradientUnits="userSpaceOnUse">
<stop stop-color="#F7C6B8"/>
<stop offset="1" stop-color="#EE6D93"/>
</linearGradient>
<linearGradient id="paint50_linear" x1="858.601" y1="141.573" x2="858.601" y2="121.07" gradientUnits="userSpaceOnUse">
<stop stop-color="#F7C6B8"/>
<stop offset="1" stop-color="#EE6D93"/>
</linearGradient>
<linearGradient id="paint51_linear" x1="858.601" y1="127.152" x2="858.601" y2="140.346" gradientUnits="userSpaceOnUse">
<stop stop-color="#F7C6B8"/>
<stop offset="1" stop-color="#EE6D93"/>
</linearGradient>
<linearGradient id="paint52_linear" x1="879.113" y1="194.537" x2="838.541" y2="194.537" gradientUnits="userSpaceOnUse">
<stop stop-color="#F7C6B8"/>
<stop offset="1" stop-color="#EE6D93"/>
</linearGradient>
<linearGradient id="paint53_linear" x1="866.039" y1="168.538" x2="850.174" y2="168.538" gradientUnits="userSpaceOnUse">
<stop stop-color="#F7C6B8"/>
<stop offset="1" stop-color="#EE6D93"/>
</linearGradient>
<linearGradient id="paint54_linear" x1="914.601" y1="138.038" x2="917.601" y2="138.038" gradientUnits="userSpaceOnUse">
<stop stop-color="#F7C6B8"/>
<stop offset="1" stop-color="#EE6D93"/>
</linearGradient>
<linearGradient id="paint55_linear" x1="909.601" y1="138.038" x2="912.601" y2="138.038" gradientUnits="userSpaceOnUse">
<stop stop-color="#F7C6B8"/>
<stop offset="1" stop-color="#EE6D93"/>
</linearGradient>
<linearGradient id="paint56_linear" x1="904.601" y1="138.038" x2="907.601" y2="138.038" gradientUnits="userSpaceOnUse">
<stop stop-color="#F7C6B8"/>
<stop offset="1" stop-color="#EE6D93"/>
</linearGradient>
<linearGradient id="paint57_linear" x1="1158.66" y1="487.485" x2="1142.58" y2="487.683" gradientUnits="userSpaceOnUse">
<stop stop-color="#F7C6B8"/>
<stop offset="1" stop-color="#EE6D93"/>
</linearGradient>
<linearGradient id="paint58_linear" x1="1147.6" y1="478.853" x2="1140.01" y2="484.163" gradientUnits="userSpaceOnUse">
<stop stop-color="#F7C6B8"/>
<stop offset="1" stop-color="#EE6D93"/>
</linearGradient>
<linearGradient id="paint59_linear" x1="1149.49" y1="487.14" x2="1139.02" y2="492.946" gradientUnits="userSpaceOnUse">
<stop stop-color="#F7C6B8"/>
<stop offset="1" stop-color="#EE6D93"/>
</linearGradient>
<linearGradient id="paint60_linear" x1="1156.05" y1="492.072" x2="1147.66" y2="495.893" gradientUnits="userSpaceOnUse">
<stop stop-color="#F7C6B8"/>
<stop offset="1" stop-color="#EE6D93"/>
</linearGradient>
<linearGradient id="paint61_linear" x1="1159.79" y1="487.63" x2="1154.97" y2="488.176" gradientUnits="userSpaceOnUse">
<stop stop-color="#F7C6B8"/>
<stop offset="1" stop-color="#EE6D93"/>
</linearGradient>
<linearGradient id="paint62_linear" x1="1175.68" y1="518.849" x2="1166.63" y2="518.961" gradientUnits="userSpaceOnUse">
<stop stop-color="#F7C6B8"/>
<stop offset="1" stop-color="#EE6D93"/>
</linearGradient>
<linearGradient id="paint63_linear" x1="1169.46" y1="513.992" x2="1165.19" y2="516.98" gradientUnits="userSpaceOnUse">
<stop stop-color="#F7C6B8"/>
<stop offset="1" stop-color="#EE6D93"/>
</linearGradient>
<linearGradient id="paint64_linear" x1="1170.52" y1="518.655" x2="1164.63" y2="521.923" gradientUnits="userSpaceOnUse">
<stop stop-color="#F7C6B8"/>
<stop offset="1" stop-color="#EE6D93"/>
</linearGradient>
<linearGradient id="paint65_linear" x1="1174.21" y1="521.431" x2="1169.49" y2="523.582" gradientUnits="userSpaceOnUse">
<stop stop-color="#F7C6B8"/>
<stop offset="1" stop-color="#EE6D93"/>
</linearGradient>
<linearGradient id="paint66_linear" x1="1176.32" y1="518.931" x2="1173.61" y2="519.238" gradientUnits="userSpaceOnUse">
<stop stop-color="#F7C6B8"/>
<stop offset="1" stop-color="#EE6D93"/>
</linearGradient>
<linearGradient id="paint67_linear" x1="1149.44" y1="518.849" x2="1140.39" y2="518.961" gradientUnits="userSpaceOnUse">
<stop stop-color="#F7C6B8"/>
<stop offset="1" stop-color="#EE6D93"/>
</linearGradient>
<linearGradient id="paint68_linear" x1="1143.22" y1="513.992" x2="1138.95" y2="516.98" gradientUnits="userSpaceOnUse">
<stop stop-color="#F7C6B8"/>
<stop offset="1" stop-color="#EE6D93"/>
</linearGradient>
<linearGradient id="paint69_linear" x1="1144.28" y1="518.655" x2="1138.39" y2="521.923" gradientUnits="userSpaceOnUse">
<stop stop-color="#F7C6B8"/>
<stop offset="1" stop-color="#EE6D93"/>
</linearGradient>
<linearGradient id="paint70_linear" x1="1147.97" y1="521.431" x2="1143.25" y2="523.582" gradientUnits="userSpaceOnUse">
<stop stop-color="#F7C6B8"/>
<stop offset="1" stop-color="#EE6D93"/>
</linearGradient>
<linearGradient id="paint71_linear" x1="1150.08" y1="518.931" x2="1147.37" y2="519.238" gradientUnits="userSpaceOnUse">
<stop stop-color="#F7C6B8"/>
<stop offset="1" stop-color="#EE6D93"/>
</linearGradient>
<linearGradient id="paint72_linear" x1="1160.7" y1="485.2" x2="1166.7" y2="485.2" gradientUnits="userSpaceOnUse">
<stop stop-color="#F7C6B8"/>
<stop offset="1" stop-color="#EE6D93"/>
</linearGradient>
<linearGradient id="paint73_linear" x1="1155.05" y1="509.99" x2="1161.05" y2="509.99" gradientUnits="userSpaceOnUse">
<stop stop-color="#F7C6B8"/>
<stop offset="1" stop-color="#EE6D93"/>
</linearGradient>
<linearGradient id="paint74_linear" x1="1126.09" y1="482.2" x2="1130.09" y2="482.2" gradientUnits="userSpaceOnUse">
<stop stop-color="#F7C6B8"/>
<stop offset="1" stop-color="#EE6D93"/>
</linearGradient>
<linearGradient id="paint75_linear" x1="1168.35" y1="538.426" x2="1172.35" y2="538.426" gradientUnits="userSpaceOnUse">
<stop stop-color="#F7C6B8"/>
<stop offset="1" stop-color="#EE6D93"/>
</linearGradient>
<linearGradient id="paint76_linear" x1="1110.11" y1="521.542" x2="1114.11" y2="521.542" gradientUnits="userSpaceOnUse">
<stop stop-color="#F7C6B8"/>
<stop offset="1" stop-color="#EE6D93"/>
</linearGradient>
<linearGradient id="paint77_linear" x1="576.045" y1="578.382" x2="576.045" y2="571.357" gradientUnits="userSpaceOnUse">
<stop stop-color="#F7C6B8"/>
<stop offset="1" stop-color="#EE6D93"/>
</linearGradient>
<linearGradient id="paint78_linear" x1="751.866" y1="288.803" x2="751.866" y2="284.12" gradientUnits="userSpaceOnUse">
<stop stop-color="#F7C6B8"/>
<stop offset="1" stop-color="#EE6D93"/>
</linearGradient>
<linearGradient id="paint79_linear" x1="976.088" y1="247.894" x2="976.088" y2="243.211" gradientUnits="userSpaceOnUse">
<stop stop-color="#F7C6B8"/>
<stop offset="1" stop-color="#EE6D93"/>
</linearGradient>
<linearGradient id="paint80_linear" x1="940.101" y1="210.067" x2="940.101" y2="205.384" gradientUnits="userSpaceOnUse">
<stop stop-color="#F7C6B8"/>
<stop offset="1" stop-color="#EE6D93"/>
</linearGradient>
<linearGradient id="paint81_linear" x1="955.101" y1="241.216" x2="955.101" y2="236.533" gradientUnits="userSpaceOnUse">
<stop stop-color="#F7C6B8"/>
<stop offset="1" stop-color="#EE6D93"/>
</linearGradient>
<linearGradient id="paint82_linear" x1="926.101" y1="243.894" x2="926.101" y2="239.211" gradientUnits="userSpaceOnUse">
<stop stop-color="#F7C6B8"/>
<stop offset="1" stop-color="#EE6D93"/>
</linearGradient>
<linearGradient id="paint83_linear" x1="958.101" y1="176.7" x2="958.101" y2="169.675" gradientUnits="userSpaceOnUse">
<stop stop-color="#F7C6B8"/>
<stop offset="1" stop-color="#EE6D93"/>
</linearGradient>
<linearGradient id="paint84_linear" x1="964.101" y1="197.237" x2="964.101" y2="190.213" gradientUnits="userSpaceOnUse">
<stop stop-color="#F7C6B8"/>
<stop offset="1" stop-color="#EE6D93"/>
</linearGradient>
<linearGradient id="paint85_linear" x1="736" y1="289.68" x2="736" y2="286.167" gradientUnits="userSpaceOnUse">
<stop stop-color="#F7C6B8"/>
<stop offset="1" stop-color="#EE6D93"/>
</linearGradient>
<linearGradient id="paint86_linear" x1="744.904" y1="271.539" x2="744.904" y2="269.197" gradientUnits="userSpaceOnUse">
<stop stop-color="#F7C6B8"/>
<stop offset="1" stop-color="#EE6D93"/>
</linearGradient>
<linearGradient id="paint87_linear" x1="739.982" y1="280.16" x2="739.982" y2="278.989" gradientUnits="userSpaceOnUse">
<stop stop-color="#F7C6B8"/>
<stop offset="1" stop-color="#EE6D93"/>
</linearGradient>
<linearGradient id="paint88_linear" x1="735.794" y1="297.284" x2="735.794" y2="296.113" gradientUnits="userSpaceOnUse">
<stop stop-color="#F7C6B8"/>
<stop offset="1" stop-color="#EE6D93"/>
</linearGradient>
<linearGradient id="paint89_linear" x1="547.003" y1="584.382" x2="547.003" y2="577.357" gradientUnits="userSpaceOnUse">
<stop stop-color="#F7C6B8"/>
<stop offset="1" stop-color="#EE6D93"/>
</linearGradient>
<linearGradient id="paint90_linear" x1="565.446" y1="609.334" x2="565.446" y2="602.31" gradientUnits="userSpaceOnUse">
<stop stop-color="#F7C6B8"/>
<stop offset="1" stop-color="#EE6D93"/>
</linearGradient>
<linearGradient id="paint91_linear" x1="535.543" y1="564.263" x2="535.543" y2="559.58" gradientUnits="userSpaceOnUse">
<stop stop-color="#F7C6B8"/>
<stop offset="1" stop-color="#EE6D93"/>
</linearGradient>
<linearGradient id="paint92_linear" x1="600.055" y1="590.909" x2="600.055" y2="586.226" gradientUnits="userSpaceOnUse">
<stop stop-color="#F7C6B8"/>
<stop offset="1" stop-color="#EE6D93"/>
</linearGradient>
<linearGradient id="paint93_linear" x1="584.055" y1="544.264" x2="584.055" y2="541.923" gradientUnits="userSpaceOnUse">
<stop stop-color="#F7C6B8"/>
<stop offset="1" stop-color="#EE6D93"/>
</linearGradient>
<linearGradient id="paint94_linear" x1="560.101" y1="557.016" x2="560.101" y2="554.674" gradientUnits="userSpaceOnUse">
<stop stop-color="#F7C6B8"/>
<stop offset="1" stop-color="#EE6D93"/>
</linearGradient>
<linearGradient id="paint95_linear" x1="520.262" y1="547.437" x2="520.262" y2="545.096" gradientUnits="userSpaceOnUse">
<stop stop-color="#F7C6B8"/>
<stop offset="1" stop-color="#EE6D93"/>
</linearGradient>
<linearGradient id="paint96_linear" x1="554.663" y1="522.82" x2="554.663" y2="520.478" gradientUnits="userSpaceOnUse">
<stop stop-color="#F7C6B8"/>
<stop offset="1" stop-color="#EE6D93"/>
</linearGradient>
<linearGradient id="paint97_linear" x1="1175.16" y1="487.298" x2="1168.31" y2="500.148" gradientUnits="userSpaceOnUse">
<stop stop-color="#F7C6B8"/>
<stop offset="1" stop-color="#EE6D93"/>
</linearGradient>
<linearGradient id="paint98_linear" x1="1173.18" y1="502.647" x2="1186.15" y2="502.647" gradientUnits="userSpaceOnUse">
<stop stop-color="#F7C6B8"/>
<stop offset="1" stop-color="#EE6D93"/>
</linearGradient>
<linearGradient id="paint99_linear" x1="1166.05" y1="502.517" x2="1175.68" y2="502.517" gradientUnits="userSpaceOnUse">
<stop stop-color="#F7C6B8"/>
<stop offset="1" stop-color="#EE6D93"/>
</linearGradient>
<linearGradient id="paint100_linear" x1="1121.9" y1="496.441" x2="1117.1" y2="505.451" gradientUnits="userSpaceOnUse">
<stop stop-color="#F7C6B8"/>
<stop offset="1" stop-color="#EE6D93"/>
</linearGradient>
<linearGradient id="paint101_linear" x1="1120.51" y1="507.204" x2="1129.61" y2="507.204" gradientUnits="userSpaceOnUse">
<stop stop-color="#F7C6B8"/>
<stop offset="1" stop-color="#EE6D93"/>
</linearGradient>
<linearGradient id="paint102_linear" x1="1115.51" y1="507.113" x2="1122.26" y2="507.113" gradientUnits="userSpaceOnUse">
<stop stop-color="#F7C6B8"/>
<stop offset="1" stop-color="#EE6D93"/>
</linearGradient>
<linearGradient id="paint103_linear" x1="1168.1" y1="431.381" x2="1200.17" y2="431.381" gradientUnits="userSpaceOnUse">
<stop stop-color="#F7C6B8"/>
<stop offset="1" stop-color="#EE6D93"/>
</linearGradient>
<linearGradient id="paint104_linear" x1="1128.12" y1="440.824" x2="1160.18" y2="440.824" gradientUnits="userSpaceOnUse">
<stop stop-color="#F7C6B8"/>
<stop offset="1" stop-color="#EE6D93"/>
</linearGradient>
<linearGradient id="paint105_linear" x1="1063.97" y1="440.657" x2="1112.03" y2="440.657" gradientUnits="userSpaceOnUse">
<stop stop-color="#F7C6B8"/>
<stop offset="1" stop-color="#EE6D93"/>
</linearGradient>
<linearGradient id="paint106_linear" x1="1032.13" y1="440.824" x2="1080.2" y2="440.824" gradientUnits="userSpaceOnUse">
<stop stop-color="#F7C6B8"/>
<stop offset="1" stop-color="#EE6D93"/>
</linearGradient>
<linearGradient id="paint107_linear" x1="580.62" y1="476.299" x2="580.725" y2="411.3" gradientUnits="userSpaceOnUse">
<stop stop-color="#3CAC8A"/>
<stop offset="1" stop-color="#5CCEAC"/>
</linearGradient>
<linearGradient id="paint108_linear" x1="586.949" y1="412.343" x2="639.217" y2="412.343" gradientUnits="userSpaceOnUse">
<stop stop-color="#158772"/>
<stop offset="1" stop-color="#5FCEB8"/>
</linearGradient>
<linearGradient id="paint109_linear" x1="575.717" y1="489.78" x2="575.717" y2="314.456" gradientUnits="userSpaceOnUse">
<stop stop-color="white"/>
<stop offset="1" stop-color="white" stop-opacity="0"/>
</linearGradient>
<linearGradient id="paint110_linear" x1="564.471" y1="453.52" x2="564.471" y2="333.161" gradientUnits="userSpaceOnUse">
<stop stop-color="white"/>
<stop offset="1" stop-color="white" stop-opacity="0"/>
</linearGradient>
<linearGradient id="paint111_linear" x1="594.347" y1="465.173" x2="594.347" y2="330.969" gradientUnits="userSpaceOnUse">
<stop stop-color="white"/>
<stop offset="1" stop-color="white" stop-opacity="0"/>
</linearGradient>
<linearGradient id="paint112_linear" x1="580.734" y1="402.137" x2="580.734" y2="426.866" gradientUnits="userSpaceOnUse">
<stop stop-color="#F7C6B8"/>
<stop offset="1" stop-color="#EE6D93"/>
</linearGradient>
<linearGradient id="paint113_linear" x1="1230" y1="265.756" x2="1230" y2="171.941" gradientUnits="userSpaceOnUse">
<stop stop-color="#5FCEB8" stop-opacity="0"/>
<stop offset="1" stop-color="#5FCEB8"/>
</linearGradient>
<linearGradient id="paint114_linear" x1="1230.03" y1="232.048" x2="1230.03" y2="126.87" gradientUnits="userSpaceOnUse">
<stop stop-color="#5FCEB8" stop-opacity="0"/>
<stop offset="1" stop-color="#5FCEB8"/>
</linearGradient>
<linearGradient id="paint115_linear" x1="1230" y1="251.8" x2="1230" y2="196.364" gradientUnits="userSpaceOnUse">
<stop stop-color="#5FCEB8" stop-opacity="0"/>
<stop offset="1" stop-color="#5FCEB8"/>
</linearGradient>
<linearGradient id="paint116_linear" x1="1239.58" y1="93.4305" x2="1203.22" y2="119.981" gradientUnits="userSpaceOnUse">
<stop stop-color="#EE6D93"/>
<stop offset="1" stop-color="#F7C6B8" stop-opacity="0"/>
</linearGradient>
<linearGradient id="paint117_linear" x1="1224.1" y1="103.47" x2="1240.05" y2="103.47" gradientUnits="userSpaceOnUse">
<stop stop-color="#F7C6B8"/>
<stop offset="1" stop-color="#EE6D93"/>
</linearGradient>
<linearGradient id="paint118_linear" x1="573.887" y1="590.842" x2="598.387" y2="638.592" gradientUnits="userSpaceOnUse">
<stop stop-color="#F7C6B8"/>
<stop offset="1" stop-color="#EE6D93"/>
</linearGradient>
<linearGradient id="paint119_linear" x1="545.077" y1="605.624" x2="569.577" y2="653.374" gradientUnits="userSpaceOnUse">
<stop stop-color="#F7C6B8"/>
<stop offset="1" stop-color="#EE6D93"/>
</linearGradient>
<linearGradient id="paint120_linear" x1="568.976" y1="552.45" x2="581.976" y2="591.7" gradientUnits="userSpaceOnUse">
<stop stop-color="#F7C6B8"/>
<stop offset="1" stop-color="#EE6D93"/>
</linearGradient>
<linearGradient id="paint121_linear" x1="532.842" y1="564.418" x2="545.842" y2="603.668" gradientUnits="userSpaceOnUse">
<stop stop-color="#F7C6B8"/>
<stop offset="1" stop-color="#EE6D93"/>
</linearGradient>
<clipPath id="clip0">
<rect width="1352" height="667" fill="white"/>
</clipPath>
</defs>
</svg>
